<?xml version="1.0" standalone="no"?>
<!DOCTYPE svg PUBLIC "-//W3C//DTD SVG 20010904//EN"
 "http://www.w3.org/TR/2001/REC-SVG-20010904/DTD/svg10.dtd">
<svg version="1.0" xmlns="http://www.w3.org/2000/svg"
 width="800.000000pt" height="450.000000pt" viewBox="0 0 800.000000 450.000000"
 preserveAspectRatio="xMidYMid meet">

<g transform="translate(0.000000,450.000000) scale(0.100000,-0.100000)"
fill="#000000" stroke="none">
<path d="M4366 3968 c5 -8 2 -9 -10 -5 -10 4 -52 -9 -104 -32 -48 -21 -115
-49 -150 -61 -34 -13 -61 -25 -59 -27 7 -6 95 26 201 74 54 24 100 42 102 40
4 -3 -294 -149 -328 -161 -10 -3 -18 -10 -18 -15 0 -5 17 -1 38 9 131 66 336
160 339 157 2 -3 -7 -35 -21 -73 -14 -37 -23 -71 -20 -76 3 -4 0 -8 -7 -8 -7
0 -9 -3 -6 -7 8 -7 -12 -42 -47 -84 -11 -14 -4 -8 16 14 47 49 99 158 106 220
4 43 3 47 -17 47 -14 0 -20 -4 -15 -12z"/>
<path d="M1097 3783 c-30 -2 -45 -8 -41 -15 4 -7 -8 -8 -37 -4 -32 4 -37 3
-19 -3 17 -6 19 -9 8 -10 -10 -1 -18 -5 -18 -11 0 -5 -8 -7 -17 -4 -15 5 -15
4 1 -6 15 -10 20 -9 27 1 7 12 9 11 9 -1 0 -9 3 -11 8 -5 4 6 13 11 20 13 25
5 -6 -35 -45 -59 -21 -12 -45 -29 -53 -36 -8 -7 -27 -24 -41 -36 -14 -13 -25
-31 -23 -40 1 -9 -3 -20 -8 -24 -6 -3 -8 -2 -5 3 3 6 1 16 -5 24 -8 12 -9 12
-4 -2 5 -17 -9 -35 -17 -21 -2 5 -3 3 -1 -3 1 -6 -3 -18 -9 -25 -7 -7 -3 -6 9
4 24 20 34 14 33 -22 0 -24 -1 -24 -9 -6 -8 19 -9 19 -9 -3 -1 -13 2 -22 7
-20 54 26 226 100 241 103 9 2 29 8 44 14 16 6 44 11 63 11 19 0 34 4 34 8 0
11 6 12 114 17 64 3 96 0 116 -10 15 -8 31 -11 36 -7 5 4 2 -1 -5 -10 -7 -10
-10 -18 -5 -18 5 0 1 -5 -9 -11 -17 -10 -17 -12 -2 -29 11 -12 13 -20 5 -25
-6 -3 -10 -3 -9 2 4 22 -2 25 -17 7 -14 -18 -15 -18 -4 4 6 12 7 22 3 22 -4 0
-2 5 5 12 15 15 16 28 2 28 -5 0 -10 -7 -10 -16 0 -8 -4 -13 -9 -9 -6 3 -8 -4
-6 -16 3 -12 0 -29 -5 -38 -8 -14 -10 -13 -10 4 -1 18 -2 18 -10 -2 -5 -13
-12 -23 -15 -23 -4 0 -3 6 1 13 5 8 4 9 -3 2 -6 -5 -16 -26 -22 -46 -9 -27
-21 -41 -44 -50 -18 -7 -36 -19 -40 -26 -5 -7 -12 -11 -17 -8 -12 7 -85 -38
-88 -55 -2 -13 -1 -13 10 0 7 8 22 17 33 18 11 2 23 9 26 14 4 6 14 8 24 5 9
-4 14 -3 10 3 -3 6 5 10 19 10 14 0 26 5 26 11 0 5 5 7 10 4 6 -3 10 0 10 7 0
9 3 9 10 -2 7 -11 10 -11 10 -2 0 7 8 12 18 11 9 -1 19 0 22 1 3 1 13 3 23 5
14 3 16 1 7 -10 -7 -8 -20 -17 -31 -20 -11 -4 -16 -11 -13 -17 4 -7 2 -8 -4
-4 -6 4 -9 14 -6 24 2 9 -2 5 -9 -11 -7 -15 -17 -24 -22 -20 -4 5 -5 -1 -1
-11 5 -16 4 -17 -9 -6 -13 11 -14 10 -9 -5 6 -14 4 -16 -6 -10 -10 6 -12 4 -7
-8 4 -12 2 -14 -10 -10 -10 4 -14 2 -10 -4 4 -6 1 -16 -7 -22 -11 -9 -15 -9
-19 1 -4 9 -6 7 -6 -4 -1 -9 -14 -25 -31 -34 -17 -11 -29 -26 -30 -38 0 -47
-3 -53 -23 -48 -16 4 -19 2 -13 -13 5 -15 4 -16 -9 -5 -13 11 -14 10 -9 -5 5
-12 4 -16 -4 -11 -6 3 -13 2 -16 -3 -4 -5 -1 -13 5 -17 8 -5 9 -3 4 6 -5 9 -4
11 4 6 8 -6 9 -12 2 -20 -6 -7 -7 -16 -3 -21 4 -4 -4 -4 -18 -1 -17 5 -21 4
-11 -2 11 -8 11 -10 0 -15 -8 -3 -5 -5 6 -4 29 4 46 17 38 30 -4 7 0 6 10 -1
15 -13 15 -16 -1 -37 -14 -19 -19 -20 -25 -9 -5 8 -12 12 -17 9 -9 -5 -8 -15
7 -52 12 -33 11 -42 -4 -47 -11 -5 -13 0 -8 17 5 19 4 20 -5 4 -6 -9 -8 -22
-4 -28 3 -6 -5 -23 -17 -37 -13 -15 8 3 46 39 39 36 90 78 114 93 52 33 167
78 190 74 9 -1 22 1 29 5 7 5 36 11 65 14 47 4 77 0 157 -23 l25 -7 -28 30
c-26 28 -123 83 -146 83 -6 0 -11 5 -11 11 0 5 -4 7 -10 4 -5 -3 -42 -7 -81
-9 -72 -3 -72 -3 -48 15 26 20 143 66 187 74 134 23 438 36 455 19 3 -3 -22
-34 -56 -68 -64 -65 -113 -147 -122 -207 -4 -25 -1 -21 11 15 33 103 106 189
224 265 69 45 139 68 240 80 74 8 75 8 20 10 -68 1 -157 -20 -230 -57 -30 -15
-58 -27 -61 -27 -3 0 -30 29 -60 65 -29 36 -76 86 -103 112 -44 43 -47 49 -35
65 13 16 12 17 -4 4 -15 -12 -22 -11 -55 13 -146 108 -262 166 -370 186 -64
12 -282 20 -355 13z m-197 -233 c-6 -11 -12 -20 -14 -20 -2 0 -2 9 1 20 3 11
9 20 15 20 5 0 4 -9 -2 -20z m636 -55 c-1 -8 -6 -18 -11 -22 -4 -4 -5 -2 -1 5
4 6 3 12 -3 12 -5 0 -11 -5 -13 -12 -3 -7 -7 -5 -11 6 -4 9 -3 15 1 12 4 -2
14 -1 22 5 19 11 19 11 16 -6z m-106 -9 c0 -2 -8 -10 -17 -17 -16 -13 -17 -12
-4 4 13 16 21 21 21 13z m-65 -319 c-11 -7 -35 -19 -52 -26 -18 -8 -33 -18
-33 -24 0 -6 -3 -7 -6 -4 -4 3 -18 -3 -32 -13 -13 -11 -32 -20 -41 -19 -10 0
-8 3 7 9 13 6 38 21 55 34 33 25 93 55 112 56 5 0 1 -6 -10 -13z m-135 -41 c0
-2 -8 -10 -17 -17 -16 -13 -17 -12 -4 4 13 16 21 21 21 13z m-9 -114 c-5 -9
-20 -27 -33 -40 -21 -19 -25 -20 -25 -5 0 21 47 74 58 67 5 -3 5 -13 0 -22z"/>
<path d="M928 3753 c7 -3 16 -2 19 1 4 3 -2 6 -13 5 -11 0 -14 -3 -6 -6z"/>
<path d="M3856 3710 c-54 -28 -93 -50 -85 -50 7 0 49 19 93 41 43 23 91 45
105 49 20 6 21 8 6 9 -11 0 -65 -22 -119 -49z"/>
<path d="M4055 3718 l-20 -21 23 12 c12 6 22 16 22 21 0 13 -2 12 -25 -12z"/>
<path d="M3584 3708 l-19 -23 23 19 c21 18 27 26 19 26 -2 0 -12 -10 -23 -22z"/>
<path d="M4015 3690 c3 -5 11 -10 16 -10 6 0 7 5 4 10 -3 6 -11 10 -16 10 -6
0 -7 -4 -4 -10z"/>
<path d="M3461 3580 c-45 -55 -79 -100 -77 -100 3 0 36 37 73 83 86 102 97
117 90 117 -3 0 -41 -45 -86 -100z"/>
<path d="M4715 3660 c-3 -5 -1 -10 4 -10 6 0 11 5 11 10 0 6 -2 10 -4 10 -3 0
-8 -4 -11 -10z"/>
<path d="M4216 3632 l-19 -27 24 22 c12 12 21 24 18 27 -2 2 -13 -8 -23 -22z"/>
<path d="M4098 3608 c-32 -34 -24 -36 16 -5 16 13 25 26 20 28 -5 3 -21 -8
-36 -23z"/>
<path d="M3730 3579 l-45 -41 42 32 c37 27 61 51 51 50 -2 0 -23 -19 -48 -41z"/>
<path d="M4159 3583 l-24 -28 28 24 c25 23 32 31 24 31 -2 0 -14 -12 -28 -27z"/>
<path d="M4590 3554 c-42 -31 -46 -34 -34 -34 5 0 25 13 44 30 42 35 38 37
-10 4z"/>
<path d="M4610 3524 c-36 -13 -72 -23 -80 -22 -8 0 -28 -5 -45 -12 -16 -7 -46
-16 -65 -19 -34 -7 -34 -7 -8 -13 16 -3 59 6 109 24 45 15 84 27 85 25 5 -4
-161 -128 -200 -149 -17 -9 -26 -17 -20 -18 14 0 169 93 217 131 25 21 37 25
37 15 0 -22 -155 -161 -226 -203 -35 -20 -62 -39 -59 -41 10 -11 160 95 227
161 130 127 138 162 28 121z"/>
<path d="M3725 3530 c3 -5 8 -10 11 -10 2 0 4 5 4 10 0 6 -5 10 -11 10 -5 0
-7 -4 -4 -10z"/>
<path d="M3730 3494 c0 -8 4 -13 9 -10 5 3 14 -1 21 -9 7 -8 16 -12 21 -9 5 3
9 0 9 -7 0 -7 10 -9 29 -6 16 3 34 1 42 -6 7 -7 5 -2 -6 11 -13 16 -21 19 -26
10 -6 -9 -11 -9 -23 1 -8 7 -20 10 -25 6 -6 -3 -16 3 -23 15 -15 24 -28 26
-28 4z"/>
<path d="M4180 3500 c14 -4 34 -8 45 -8 16 0 15 2 -5 8 -14 4 -34 8 -45 8 -16
0 -15 -2 5 -8z"/>
<path d="M4258 3483 c6 -2 18 -2 25 0 6 3 1 5 -13 5 -14 0 -19 -2 -12 -5z"/>
<path d="M4315 3480 c-4 -6 3 -10 14 -10 25 0 27 6 6 13 -8 4 -17 2 -20 -3z"/>
<path d="M3345 3470 c-3 -6 1 -7 9 -4 18 7 21 14 7 14 -6 0 -13 -4 -16 -10z"/>
<path d="M4016 3445 c-8 -8 -21 -15 -30 -15 -8 0 -17 -4 -20 -9 -10 -16 43 1
60 20 20 22 12 26 -10 4z"/>
<path d="M3459 3333 c-13 -16 -12 -17 4 -4 16 13 21 21 13 21 -2 0 -10 -8 -17
-17z"/>
<path d="M3838 3336 c-21 -8 -55 -29 -75 -47 -21 -19 -55 -45 -75 -57 -45 -28
-50 -39 -8 -17 39 20 40 20 35 -17 -5 -31 -4 -31 10 7 8 22 21 45 29 50 7 6
16 17 19 25 4 8 5 1 3 -16 l-4 -32 47 47 c25 25 57 47 70 49 37 4 69 -23 81
-68 13 -47 22 -54 13 -9 l-6 31 29 -17 29 -17 -25 21 c-14 11 -34 29 -45 40
-24 23 -59 41 -77 41 -7 -1 -30 -7 -50 -14z"/>
<path d="M4345 3329 c-4 -6 -17 -14 -29 -19 -17 -7 -18 -9 -3 -9 10 -1 27 8
39 19 12 11 17 20 10 20 -6 0 -14 -5 -17 -11z"/>
<path d="M3404 3288 c-17 -18 -40 -46 -51 -63 -26 -38 -56 -108 -42 -99 6 3 9
-4 7 -18 -4 -40 14 -188 22 -183 5 3 22 -14 38 -37 40 -58 110 -122 169 -154
26 -15 57 -34 67 -43 19 -16 19 -15 1 12 -9 15 -21 27 -25 27 -4 0 -18 15 -30
33 -16 24 -21 27 -17 10 3 -15 1 -20 -9 -16 -7 2 -11 10 -8 17 4 10 -39 75
-63 96 -10 9 9 -24 33 -57 29 -38 30 -47 5 -33 -75 39 -157 175 -167 275 -7
71 15 162 47 191 22 20 63 74 57 74 -2 0 -18 -15 -34 -32z"/>
<path d="M4031 3315 c0 -5 5 -19 12 -30 10 -17 19 -19 52 -14 l40 6 -41 2
c-32 1 -43 6 -52 24 -6 12 -11 18 -11 12z"/>
<path d="M4258 3293 c6 -2 18 -2 25 0 6 3 1 5 -13 5 -14 0 -19 -2 -12 -5z"/>
<path d="M2416 3282 c-4 -4 -16 -8 -27 -8 -34 -3 -39 -4 -36 -11 1 -5 -2 -8
-8 -8 -5 0 -9 4 -7 8 1 5 -2 6 -8 2 -6 -3 -8 -10 -5 -15 3 -5 1 -11 -5 -15 -5
-3 -10 -14 -9 -23 0 -14 2 -13 9 3 l9 20 1 -20 c1 -19 2 -19 9 -1 6 15 9 17
16 7 7 -12 -12 -31 -35 -37 -38 -8 -81 -41 -47 -35 5 1 5 -4 1 -10 -5 -9 -13
-5 -26 10 -10 13 -18 18 -18 12 0 -7 -4 -9 -10 -6 -6 4 -7 -1 -3 -11 4 -12 3
-15 -5 -10 -7 4 -12 15 -13 24 0 14 -2 13 -9 -3 -9 -20 -14 -10 -11 25 0 10
-1 11 -5 2 -3 -6 -10 -10 -14 -7 -5 3 -15 -4 -23 -15 -7 -11 -16 -17 -20 -14
-3 3 -3 -5 0 -18 4 -18 3 -20 -6 -8 -7 9 -11 10 -11 3 0 -22 21 -25 27 -4 4
16 9 19 18 11 9 -8 15 -8 20 0 7 12 25 4 25 -11 0 -6 -4 -8 -9 -4 -5 3 -12 1
-16 -5 -4 -6 -11 -8 -16 -4 -5 3 -8 0 -7 -8 2 -7 -2 -12 -8 -11 -6 1 -11 -5
-11 -12 0 -10 4 -12 12 -5 7 5 16 6 20 2 5 -4 5 -2 1 5 -7 13 10 28 18 15 7
-12 -23 -53 -35 -46 -5 3 -9 2 -8 -3 4 -22 -2 -25 -16 -7 -12 15 -14 16 -9 2
4 -13 1 -16 -13 -14 -14 3 -19 -3 -20 -26 0 -22 2 -27 9 -17 8 12 9 11 5 -1
-2 -8 -10 -14 -16 -12 -10 2 -15 -11 -12 -31 0 -4 -5 -6 -11 -5 -8 2 -12 -5
-10 -17 3 -16 -2 -13 -20 10 -13 17 -32 30 -44 30 -26 0 -56 -24 -48 -39 3 -6
-1 -4 -8 5 -11 14 -15 14 -27 2 -7 -8 -10 -17 -6 -21 3 -3 10 -1 14 7 6 10 10
9 15 -4 3 -10 1 -24 -5 -31 -20 -24 -38 3 -42 64 -2 32 -3 10 -2 -48 2 -80 8
-123 28 -182 14 -43 22 -78 18 -78 -11 0 -51 94 -58 134 -5 35 -16 45 -27 27
-4 -5 -1 -11 5 -13 7 -2 6 -8 -4 -17 -14 -11 -16 -9 -14 14 1 14 9 30 17 35
12 8 13 13 3 30 -7 11 -13 29 -13 40 0 12 -4 18 -10 15 -5 -3 -10 -19 -10 -35
0 -22 4 -28 15 -24 8 4 15 1 15 -5 0 -7 -7 -14 -15 -17 -8 -4 -15 -14 -15 -24
0 -10 -9 -22 -20 -25 -11 -3 -20 -15 -20 -25 0 -14 5 -18 16 -13 12 4 15 2 12
-8 -2 -8 -14 -15 -26 -17 -12 -2 -22 -10 -22 -18 0 -8 -9 -14 -20 -14 -13 0
-20 -7 -20 -19 0 -13 7 -18 23 -17 12 1 32 -9 45 -23 13 -15 20 -20 16 -12 -5
9 -3 12 4 7 16 -10 15 -26 -2 -26 -14 0 -26 -20 -33 -55 -2 -10 -7 -22 -11
-25 -4 -3 -13 -13 -21 -23 -12 -16 -12 -17 5 -11 10 4 24 10 29 14 6 4 21 7
35 6 14 -1 36 2 49 6 15 6 28 5 35 -2 8 -8 6 -9 -8 -4 -12 5 -17 4 -13 -3 4
-6 -6 -9 -28 -7 -20 1 -33 -1 -30 -6 3 -5 0 -12 -6 -16 -7 -4 -9 -3 -6 3 4 6
0 14 -8 17 -9 3 -15 1 -14 -7 3 -25 -1 -35 -18 -41 -15 -6 -15 -4 2 14 12 13
14 20 5 20 -7 0 -19 -8 -27 -17 -8 -11 -11 -12 -7 -3 7 12 5 13 -8 3 -8 -7
-18 -10 -21 -6 -4 3 -7 -1 -7 -11 0 -9 4 -14 10 -11 6 3 7 -1 4 -9 -3 -9 -11
-13 -18 -9 -6 3 -7 2 -3 -2 10 -12 38 -15 31 -4 -3 5 0 9 5 9 6 0 11 -7 11
-15 0 -8 -4 -15 -9 -15 -5 0 -11 -9 -14 -20 -3 -11 -14 -20 -25 -20 -23 0 -76
65 -66 82 4 6 3 8 -4 4 -14 -9 -64 64 -113 167 -22 45 -37 71 -33 57 13 -47
72 -155 131 -238 l58 -83 55 5 c30 3 60 6 65 6 29 3 176 -24 223 -40 107 -38
175 -89 350 -265 93 -93 195 -203 226 -242 52 -65 56 -74 43 -88 -12 -11 -17
-12 -21 -2 -3 6 -4 0 -1 -15 4 -20 -4 -38 -32 -75 -20 -26 -40 -49 -45 -51 -4
-2 -3 -13 3 -24 8 -15 8 -19 0 -14 -6 4 -11 0 -11 -8 0 -9 -9 -25 -21 -37 -11
-11 -18 -27 -15 -35 3 -9 1 -12 -4 -9 -14 9 -12 -18 3 -35 6 -8 3 -7 -9 3 -11
9 -23 17 -27 17 -3 0 -47 25 -97 55 -50 31 -130 71 -178 91 -93 37 -246 84
-272 83 -8 0 23 -11 70 -24 166 -47 342 -127 442 -200 l47 -35 -14 -47 c-8
-27 -15 -52 -15 -56 0 -5 -5 -5 -12 -1 -6 4 -8 3 -5 -3 9 -14 -29 -46 -58 -50
-13 -2 -27 1 -30 7 -5 8 -11 7 -22 -1 -19 -17 -55 -19 -49 -4 2 6 -2 12 -9 12
-9 0 -11 -7 -5 -22 5 -13 4 -28 -2 -36 -8 -11 -9 -10 -4 4 3 9 2 17 -3 17 -4
0 -13 11 -19 25 -26 58 -101 67 -252 30 -24 -5 -24 -5 -2 4 36 17 25 28 -24
25 -25 -2 -43 0 -39 5 3 5 -3 8 -12 6 -10 -2 -25 -4 -33 -4 -26 -2 4 -19 40
-24 29 -4 27 -5 -10 -4 -58 1 -62 4 -49 30 9 18 9 20 -2 10 -15 -15 -33 -17
-25 -4 4 5 -4 7 -16 4 -19 -4 -20 -3 -8 6 8 6 10 11 5 11 -6 0 -17 -6 -24 -12
-12 -11 -13 -10 -7 6 5 16 4 17 -9 6 -8 -7 -15 -9 -15 -5 0 4 -8 1 -17 -6 -14
-12 -16 -12 -11 1 4 11 0 16 -12 16 -10 0 -17 -4 -14 -7 2 -4 0 -10 -6 -14
-10 -6 -15 9 -10 30 3 15 -11 -1 -24 -27 -6 -13 -20 -25 -31 -27 -19 -3 -19
-2 -4 15 9 11 20 25 24 33 12 20 -16 3 -33 -21 -7 -10 -18 -18 -25 -18 -8 0
-8 3 1 12 7 7 12 19 12 27 -1 13 -3 13 -15 -3 -8 -10 -19 -15 -26 -10 -8 5
-10 3 -4 -6 6 -9 4 -12 -6 -8 -11 4 -14 -5 -14 -43 0 -52 -10 -65 -17 -24 -3
16 -1 22 6 18 6 -3 7 -2 3 3 -4 4 -18 9 -30 9 -17 1 -23 -4 -25 -19 -1 -17 1
-18 8 -6 5 8 10 10 10 4 0 -5 -5 -15 -10 -20 -15 -15 -22 -64 -10 -64 6 0 8 4
5 10 -3 6 1 7 9 4 23 -9 20 -12 -21 -31 -21 -9 -42 -19 -47 -21 -4 -2 -6 4 -2
14 3 11 -1 30 -9 44 -9 15 -14 19 -15 10 0 -13 -1 -13 -11 0 -8 12 -9 10 -4
-7 4 -16 2 -21 -11 -19 -10 2 -19 10 -21 19 -2 9 -4 25 -6 34 -4 18 -34 27
-43 12 -3 -5 -10 -7 -15 -3 -5 3 -9 2 -8 -3 4 -21 -2 -34 -13 -27 -6 4 -8 3
-4 -4 3 -6 2 -13 -3 -17 -6 -3 -8 -12 -5 -19 3 -9 -2 -13 -18 -12 -16 1 -23
-5 -25 -19 l-3 -20 10 20 c8 16 9 13 5 -15 l-5 -35 14 35 c11 25 15 29 16 15
l1 -20 9 20 9 20 1 -20 1 -20 9 20 9 20 1 -20 1 -20 9 20 9 20 1 -20 1 -20 10
20 c7 16 8 14 3 -10 -3 -16 -12 -37 -20 -45 -9 -8 -14 -10 -13 -5 1 6 1 19 -1
30 l-1 20 -9 -20 -9 -20 -1 20 -1 20 -9 -20 -9 -20 -1 20 c-1 19 -2 18 -10 -2
-11 -27 -42 -21 -32 5 4 13 3 15 -9 6 -8 -5 -20 -9 -26 -8 -7 1 -21 2 -30 4
-11 1 -13 4 -6 6 7 3 10 13 7 22 -3 9 1 6 10 -8 13 -22 15 -23 22 -7 3 10 4
21 0 24 -13 13 -37 11 -43 -3 -3 -8 -9 -11 -14 -8 -5 3 -9 0 -9 -5 0 -6 -9
-11 -21 -11 -11 0 -18 4 -15 8 2 4 -11 7 -29 7 -18 0 -31 -3 -28 -8 2 -4 -5
-7 -17 -7 -12 0 -19 3 -17 8 3 4 -25 8 -61 9 -37 1 -76 4 -87 6 -11 2 -26 -1
-34 -7 -11 -8 -13 -8 -7 2 5 8 1 12 -11 13 -11 0 -13 3 -5 6 6 2 10 9 6 14 -3
5 -14 -1 -25 -13 -11 -14 -17 -16 -14 -7 5 13 -1 16 -29 14 -19 -1 -34 3 -33
8 3 14 -66 17 -83 4 -13 -10 -13 -10 -1 5 12 16 10 19 -14 28 -20 8 -32 7 -43
-2 -10 -8 -13 -9 -9 -1 4 7 -5 15 -24 22 -27 9 -30 9 -19 -4 7 -9 15 -13 17
-11 3 2 13 -4 24 -15 11 -11 24 -17 29 -14 6 4 10 1 10 -5 0 -10 48 -35 63
-32 4 1 7 -2 7 -8 0 -6 3 -9 8 -8 4 1 17 -3 29 -10 18 -10 23 -10 23 0 0 6 7
3 15 -8 8 -10 15 -14 15 -9 0 6 5 3 10 -5 9 -13 10 -13 10 0 0 13 1 13 10 0 7
-11 10 -11 10 -2 0 10 5 10 20 2 11 -6 20 -8 20 -4 0 3 6 1 13 -5 8 -6 16 -10
18 -8 2 1 -2 -4 -10 -10 -11 -10 -18 -10 -30 0 -14 10 -14 10 -4 -4 7 -9 10
-18 7 -22 -3 -3 29 9 73 26 66 26 92 31 163 32 96 0 142 -12 218 -56 47 -27
52 -32 40 -47 -7 -9 18 12 56 47 78 71 183 127 260 137 35 5 47 4 42 -4 -4 -6
22 2 56 18 35 16 93 37 130 46 58 14 76 15 127 4 83 -17 90 -24 63 -53 -12
-13 -22 -27 -22 -31 0 -4 17 11 38 34 34 35 45 40 83 40 l44 0 -25 20 -25 20
27 0 c41 0 77 -38 101 -108 l22 -64 50 -2 c76 -3 153 -43 236 -125 41 -39 79
-69 86 -67 7 3 12 2 11 -2 -3 -7 74 -113 79 -109 3 4 58 280 82 419 20 111 27
184 12 128 -3 -14 -26 -56 -51 -94 l-45 -68 -9 43 c-8 40 6 208 21 246 4 9 0
11 -11 7 -9 -3 -16 -2 -16 4 0 6 5 12 12 14 8 3 7 29 -5 99 -25 149 -31 238
-15 256 12 15 11 15 -10 4 -33 -18 -36 -9 -14 36 11 21 22 63 26 93 11 91 55
256 93 346 l36 85 18 -41 c10 -23 23 -39 29 -35 6 3 7 0 4 -9 -6 -17 40 -66
62 -66 25 0 25 -20 -1 -70 -14 -27 -23 -50 -20 -50 3 0 22 34 42 76 l36 76 97
-4 c84 -3 105 -8 162 -36 35 -17 77 -43 91 -56 21 -20 28 -22 34 -11 6 11 18
6 51 -22 39 -32 80 -85 53 -69 -21 13 -11 -30 14 -64 26 -36 33 -34 14 3 -11
21 -10 21 15 -2 25 -24 37 -49 16 -36 -5 3 -10 1 -10 -4 0 -13 1 -13 75 3 33
8 51 15 40 15 -11 1 -38 10 -60 20 -31 15 -35 20 -18 20 12 1 37 -5 55 -13 48
-21 72 -30 83 -31 6 0 11 -5 13 -10 1 -6 -30 -13 -69 -17 -40 -4 -74 -10 -76
-12 -3 -3 10 -9 29 -14 18 -5 55 -30 82 -56 27 -25 52 -46 56 -46 14 0 157
151 148 156 -4 3 -11 -2 -14 -11 -6 -14 -8 -14 -20 2 -13 17 -13 17 -14 1 0
-10 5 -18 12 -18 8 0 7 -6 -4 -16 -18 -18 -58 -11 -58 11 0 8 -8 18 -17 24
-14 8 -11 11 20 16 52 10 54 21 7 33 -22 5 -37 6 -34 1 3 -5 -2 -9 -11 -9 -9
0 -14 3 -12 8 3 4 -14 7 -36 6 -23 0 -48 2 -55 4 -19 7 54 42 87 42 21 0 30 6
34 21 5 20 10 21 56 15 l50 -7 7 48 c3 27 13 56 22 66 22 25 101 59 137 60 17
0 22 2 13 4 -23 6 -23 8 6 46 28 37 44 87 27 87 -6 0 -11 -9 -11 -20 0 -12 -8
-35 -17 -53 l-18 -32 -5 52 c-5 48 -38 103 -61 103 -4 0 6 -13 22 -29 16 -16
29 -38 29 -49 0 -27 -10 -53 -19 -48 -4 3 -13 -4 -20 -16 -11 -18 -10 -19 8
-13 13 4 21 2 21 -4 0 -14 -59 -51 -81 -51 -26 0 -59 -44 -59 -78 0 -35 -15
-41 -52 -19 -31 18 -67 60 -60 71 3 6 7 5 10 -3 3 -8 8 -7 18 6 12 15 13 15 8
2 -3 -10 0 -20 7 -25 9 -5 10 -2 6 9 -3 10 -4 17 -1 17 2 0 9 -10 14 -22 7
-18 9 -19 9 -5 1 30 1 32 -6 32 -5 0 -14 4 -20 8 -7 5 -13 5 -13 1 0 -4 -9 1
-20 11 -11 10 -20 14 -20 9 0 -5 -7 -1 -14 9 -12 16 -14 16 -20 2 -4 -11 -2
-14 6 -9 7 5 8 3 3 -6 -6 -9 -4 -11 5 -5 9 6 11 4 5 -5 -5 -8 -4 -11 2 -7 5 3
10 -1 10 -9 0 -22 -47 24 -64 64 -7 18 -18 30 -23 27 -6 -3 -10 2 -10 11 0 10
-3 14 -7 11 -3 -4 -12 1 -20 11 -12 16 -13 16 -7 -3 3 -11 -4 -3 -15 17 -18
31 -19 41 -9 63 11 25 15 27 68 22 38 -4 46 -3 25 2 -50 14 -95 13 -95 -3 0
-7 -7 -19 -15 -26 -12 -10 -14 -8 -10 9 2 12 6 25 9 30 3 5 -9 11 -28 13 -33
4 -33 3 -19 -19 8 -13 12 -30 9 -39 -4 -11 1 -18 14 -21 11 -3 27 -23 37 -45
13 -29 22 -38 35 -35 10 3 16 2 14 -2 -3 -4 29 -41 69 -81 41 -41 75 -79 75
-85 0 -27 -31 -48 -100 -67 -67 -18 -96 -24 -123 -27 -5 -1 -5 -6 -2 -12 5 -7
2 -7 -11 0 -11 5 -27 12 -38 15 -18 6 -18 7 0 28 19 21 19 21 -3 7 -20 -12
-26 -9 -70 30 -26 24 -57 53 -67 65 l-19 21 5 -27 c5 -27 4 -26 -57 18 -43 30
-84 50 -129 61 -61 15 -65 17 -60 39 6 22 4 24 -27 18 -19 -3 -47 -10 -63 -15
-16 -5 -36 -9 -45 -9 -43 1 44 33 118 44 34 5 51 19 51 43 0 15 -43 8 -112
-17 -27 -10 -48 -14 -48 -8 0 14 78 45 133 53 39 6 47 11 42 23 -3 9 -3 13 1
9 4 -4 13 2 21 12 7 11 28 22 46 24 17 3 6 3 -26 1 -32 -2 -86 -15 -119 -28
l-60 -25 4 24 c3 14 0 26 -8 29 -7 3 -22 23 -33 45 -18 34 -19 41 -6 51 11 9
22 10 42 1 37 -14 253 -64 258 -59 2 2 -46 16 -108 32 -182 46 -248 85 -289
170 -18 38 -19 39 -13 9 6 -28 -1 -42 -52 -110 -32 -43 -72 -103 -87 -133 -38
-73 -46 -80 -46 -44 0 38 34 140 58 174 10 14 27 57 40 96 42 135 145 237 317
315 76 34 79 35 70 12 -12 -31 -22 -123 -13 -123 16 0 8 -58 -9 -64 -10 -4
-42 -21 -70 -39 -59 -35 -64 -50 -35 -106 21 -43 55 -48 95 -15 16 13 34 24
40 25 7 1 1 4 -13 8 l-25 7 28 19 c24 15 30 16 37 4 6 -8 4 -17 -3 -22 -7 -4
8 -5 33 -2 88 11 154 -55 154 -156 0 -41 3 -48 22 -52 16 -3 20 0 17 14 -7 26
14 32 27 8 8 -15 9 -19 1 -15 -6 4 -11 3 -11 -3 0 -10 31 -17 102 -24 l37 -3
-25 24 c-13 14 -24 28 -24 32 0 4 -45 43 -101 85 -56 43 -118 94 -140 115 -21
20 -42 34 -46 31 -3 -3 -3 -1 1 6 9 16 -4 64 -15 57 -5 -3 -6 1 -3 9 3 8 -2
17 -10 20 -9 4 -16 12 -16 19 0 9 3 9 11 -2 8 -11 9 -9 3 10 -3 14 -10 30 -13
35 -14 19 -4 88 14 101 11 8 16 21 12 34 -3 11 -1 18 4 14 5 -3 9 -1 9 5 0 5
12 23 26 40 35 42 22 39 -29 -7 -27 -25 -59 -43 -91 -51 -56 -14 -108 -39
-185 -90 -73 -48 -117 -97 -169 -190 -24 -42 -47 -78 -50 -81 -12 -9 -41 -61
-88 -155 -63 -129 -85 -223 -91 -385 l-4 -135 27 30 c15 17 30 29 33 27 2 -1
6 4 7 12 1 8 7 22 13 33 11 16 11 15 6 -7 -5 -22 -5 -23 6 -6 8 13 8 25 1 41
-6 13 -7 27 -1 36 8 13 13 5 10 -15 -1 -4 1 -17 5 -28 5 -16 8 -18 15 -7 5 8
8 21 8 29 0 10 -3 8 -9 -5 -7 -16 -9 -16 -9 -4 -1 9 8 27 19 40 10 13 19 20
20 15 0 -5 6 -3 14 4 8 6 12 19 9 28 -4 13 -3 14 6 6 12 -11 5 -44 -10 -44 -4
0 -6 -6 -3 -13 2 -7 0 -24 -6 -38 -9 -21 -9 -20 -5 11 5 29 4 32 -6 17 -6 -11
-9 -31 -6 -47 3 -15 2 -40 -3 -56 l-10 -29 4 28 c2 15 -1 27 -7 27 -6 0 -7
-15 -4 -37 9 -53 -12 -181 -39 -239 -29 -62 -30 -79 -4 -101 11 -10 20 -25 20
-35 0 -58 -68 36 -100 136 -13 42 -28 76 -33 76 -11 0 -1 -43 19 -84 8 -16 12
-31 10 -33 -2 -2 -27 20 -54 49 -47 48 -53 61 -73 143 -32 130 -32 310 -1 420
26 92 79 200 125 258 17 22 33 50 34 61 2 12 10 38 18 59 8 20 12 37 9 37 -3
0 -10 -13 -15 -30 -6 -16 -15 -27 -20 -24 -5 3 -6 10 -3 16 4 7 2 8 -4 4 -9
-5 -9 -13 -2 -27 7 -11 7 -19 1 -19 -5 0 -8 -8 -7 -17 3 -21 -63 -125 -75
-118 -4 3 -11 0 -15 -6 -4 -8 -3 -9 4 -5 17 10 15 5 -17 -63 -15 -33 -32 -57
-36 -53 -5 4 -5 2 -2 -4 4 -6 0 -31 -7 -55 l-14 -44 0 65 c0 36 7 83 16 105
20 53 61 107 74 99 7 -4 8 -2 4 5 -4 6 0 14 8 17 9 3 16 13 16 21 0 8 5 11 10
8 20 -12 9 12 -15 35 -17 16 -25 19 -25 9 0 -9 -3 -10 -8 -4 -9 14 -45 14 -54
1 -4 -6 -2 -17 4 -26 6 -8 -3 0 -21 18 -32 32 -54 45 -32 18 9 -11 9 -16 0
-22 -8 -5 -9 -3 -4 6 6 9 2 10 -15 5 -17 -5 -21 -4 -15 5 5 9 4 11 -4 6 -6 -4
-9 -12 -6 -17 10 -15 -6 -51 -19 -46 -9 4 -11 -3 -8 -20 4 -20 2 -24 -8 -18
-9 5 -11 4 -6 -3 4 -7 3 -12 -1 -12 -15 0 -12 -38 3 -51 9 -7 14 -8 14 -1 0 6
-4 14 -10 17 -5 3 -1 22 11 45 12 23 26 37 32 33 6 -4 8 0 5 9 -4 8 -2 21 4
29 8 11 9 11 5 -2 -3 -9 -1 -22 4 -30 7 -12 9 -12 9 1 0 13 1 13 10 0 8 -13
10 -12 11 5 1 11 1 24 0 29 -1 5 5 4 13 -4 9 -7 16 -18 16 -26 0 -7 8 -11 19
-9 14 3 18 -1 14 -12 -4 -10 -8 -11 -13 -3 -5 8 -11 6 -20 -5 -12 -14 -15 -14
-31 1 -17 15 -18 14 -14 -27 3 -40 3 -42 -9 -21 -6 12 -15 20 -19 16 -3 -4 0
-16 8 -27 13 -18 11 -23 -14 -53 -19 -21 -28 -41 -26 -58 2 -14 -1 -24 -6 -20
-13 8 -11 -10 4 -26 10 -12 9 -12 -5 -1 -10 7 -19 11 -19 7 -1 -3 -2 -10 -3
-15 0 -5 -5 -13 -9 -18 -5 -4 -8 -3 -7 2 1 6 1 12 0 15 -1 3 -3 13 -5 23 -3
14 0 16 10 7 10 -9 12 -3 10 30 -2 36 -1 39 13 28 13 -11 15 -10 9 5 -4 10 -7
21 -7 23 0 3 -5 2 -12 -2 -7 -4 -8 -3 -4 4 4 7 1 12 -6 12 -11 0 -11 2 0 9 11
6 10 10 0 19 -13 11 -17 0 -21 -55 0 -7 -3 -10 -6 -7 -10 9 -10 108 0 129 7
14 4 13 -8 -4 -10 -14 -18 -43 -19 -65 -1 -23 -4 -57 -8 -76 -4 -24 -2 -30 4
-20 7 12 9 10 7 -7 0 -12 -5 -19 -10 -16 -5 3 -6 -8 -4 -25 3 -16 2 -35 -2
-41 -12 -18 -64 106 -67 159 -2 25 -6 59 -9 75 -3 17 0 49 6 72 6 23 9 47 7
55 -3 7 -12 -16 -21 -52 -12 -50 -22 -59 -16 -14 0 4 -5 11 -13 15 -10 7 -10
9 0 9 6 0 12 5 12 11 0 5 -6 7 -12 4 -7 -4 -5 0 5 8 10 9 20 30 22 49 2 18 4
34 5 36 2 1 3 6 4 11 0 5 4 13 9 17 13 13 7 23 -10 18 -11 -3 -9 0 4 8 26 15
85 92 77 100 -2 3 8 13 23 23 33 22 58 46 58 56 0 4 4 11 9 16 6 5 6 2 1 -6
-6 -10 -4 -13 6 -9 8 3 21 9 31 13 11 4 18 0 23 -14 4 -12 12 -18 21 -14 12 4
12 8 -3 19 -17 13 -17 14 1 7 12 -4 17 -3 13 4 -4 6 0 13 8 17 14 5 20 -5 16
-27 -1 -5 3 -6 8 -3 5 3 7 15 4 26 -4 15 2 21 23 27 16 4 35 6 43 4 8 -1 10 2
5 10 -5 9 -2 10 9 6 10 -3 17 -2 17 4 0 6 5 7 10 4 6 -4 7 -11 4 -17 -4 -7 -2
-8 5 -4 6 4 9 12 6 17 -4 5 -1 9 4 9 17 0 13 -31 -6 -47 -16 -12 -15 -12 8 -2
23 9 25 15 20 42 -6 30 -10 32 -50 32 -34 0 -45 4 -47 17 -1 10 3 21 8 25 6 3
8 1 4 -5 -3 -6 -2 -13 4 -17 5 -3 10 0 10 7 1 8 6 6 15 -6 11 -14 15 -16 15
-5 0 12 2 12 10 -1 6 -9 10 -10 10 -3 0 6 -5 15 -10 18 -6 4 -8 10 -5 15 3 5
-4 7 -16 5 -13 -3 -28 0 -35 6 -8 7 -14 7 -19 -1 -5 -8 -11 -8 -19 -1 -7 6
-16 7 -20 3z m42 -10 c9 9 8 4 0 -15 -11 -21 -14 -23 -19 -10 -5 15 -6 14 -11
-3 -4 -15 -13 -20 -39 -19 -38 1 -38 2 -20 30 9 14 11 15 7 3 -3 -10 0 -20 6
-24 7 -5 8 -2 3 6 -5 9 -4 11 3 6 8 -5 10 -1 6 11 -3 10 2 7 11 -7 10 -15 14
-18 11 -7 -8 25 2 41 18 28 9 -7 16 -7 24 1z m-293 -132 c-5 -8 -11 -8 -17 -2
-6 6 -7 16 -3 22 5 8 11 8 17 2 6 -6 7 -16 3 -22z m79 -6 c4 -10 2 -13 -6 -8
-8 5 -9 2 -5 -10 4 -10 3 -15 -3 -11 -6 3 -10 -1 -10 -10 0 -10 5 -13 13 -9 7
4 9 3 4 -2 -5 -5 -12 -9 -15 -8 -4 0 -15 -10 -25 -23 -10 -12 -23 -22 -30 -20
-6 1 -11 -2 -12 -8 -1 -17 -35 -61 -35 -45 0 11 -2 12 -8 3 -6 -9 -11 -7 -20
7 -13 21 -6 29 20 25 10 -2 31 12 48 32 25 28 29 38 19 49 -10 12 -10 15 2 12
9 -2 13 4 12 17 -1 19 -1 19 12 2 13 -18 14 -17 20 2 8 25 11 26 19 5z m923
-76 c-3 -8 -6 -5 -6 6 -1 11 2 17 5 13 3 -3 4 -12 1 -19z m-1290 -210 c-3 -8
-6 -5 -6 6 -1 11 2 17 5 13 3 -3 4 -12 1 -19z m73 7 c0 -8 -7 -15 -16 -15 -14
0 -14 3 -4 15 7 8 14 15 16 15 2 0 4 -7 4 -15z m1263 -10 c-3 -9 -8 -14 -10
-11 -3 3 -2 9 2 15 9 16 15 13 8 -4z m-1310 -22 c-5 -12 -3 -14 8 -8 11 6 11
5 2 -5 -16 -17 -32 -4 -26 20 3 11 9 17 14 15 4 -3 5 -13 2 -22z m77 23 c0 -2
-8 -10 -17 -17 -16 -13 -17 -12 -4 4 13 16 21 21 21 13z m470 -72 c0 -8 -19
-13 -24 -6 -3 5 1 9 9 9 8 0 15 -2 15 -3z m-621 -45 l-24 -20 25 5 c14 3 19 3
12 0 -9 -4 -10 -10 -2 -19 8 -9 5 -12 -12 -11 -12 0 -33 -8 -45 -20 -22 -21
-56 -25 -70 -9 -5 4 -3 5 3 2 7 -4 17 0 24 9 7 8 19 13 26 10 15 -6 47 28 37
38 -5 4 1 14 11 22 30 22 41 17 15 -7z m1044 -31 c2 -7 -10 -35 -26 -63 -38
-62 -36 -60 -43 -52 -7 7 46 127 57 127 4 0 9 -6 12 -12z m-1007 -49 c3 -5 -3
-6 -12 -2 -11 4 -15 2 -11 -4 4 -6 -2 -18 -12 -27 -14 -13 -21 -14 -27 -5 -4
7 -3 10 2 7 5 -3 15 0 21 8 21 22 -3 25 -31 3 -14 -11 -26 -16 -26 -10 0 27
82 52 96 30z m4 -23 c0 -2 -8 -10 -17 -17 -16 -13 -17 -12 -4 4 13 16 21 21
21 13z m1614 -29 c32 -42 32 -47 1 -47 -19 0 -28 8 -39 33 -23 56 -1 65 38 14z
m-1627 -22 c-10 -7 -17 -26 -17 -44 0 -30 -2 -31 -40 -31 -29 0 -40 4 -40 15
0 14 12 20 33 16 5 -1 5 3 2 9 -11 17 23 48 52 48 24 0 25 -2 10 -13z m1071
-16 c-10 -7 -10 -9 1 -9 9 0 12 -9 9 -29 -2 -17 -1 -28 4 -25 4 3 9 15 9 27 1
17 2 18 6 5 2 -10 9 -18 14 -18 6 0 7 -4 4 -10 -3 -5 -2 -10 3 -10 13 0 8 -35
-10 -61 -14 -21 -17 -22 -34 -9 -18 14 -18 14 0 -8 17 -20 18 -24 4 -39 -23
-26 -28 -91 -8 -97 13 -3 13 -4 -1 -5 -19 -1 -69 36 -69 52 0 6 7 2 15 -9 15
-19 15 -19 13 1 -2 37 2 60 10 49 5 -8 11 -7 22 4 13 14 12 15 -3 9 -12 -5
-17 -2 -15 8 2 7 -1 13 -7 12 -5 -1 -10 -10 -10 -20 -1 -10 -8 -23 -15 -30
-10 -10 -10 -8 -1 10 13 26 14 36 3 29 -5 -3 -9 1 -9 9 0 8 4 12 8 10 14 -9
17 24 4 42 -8 10 -15 26 -15 36 0 11 -5 15 -11 11 -8 -4 -7 0 1 15 6 12 16 18
22 15 6 -4 8 -3 5 3 -4 6 3 23 14 37 17 22 24 24 35 15 12 -10 12 -14 2 -20z
m-1053 -39 c-3 -5 -11 -10 -16 -10 -6 0 -7 5 -4 10 3 6 11 10 16 10 6 0 7 -4
4 -10z m-23 -67 c-6 -3 -10 -9 -7 -13 3 -5 1 -12 -5 -15 -6 -4 -9 -1 -8 6 2 6
-3 14 -11 17 -9 3 -11 0 -6 -8 5 -8 4 -11 -3 -6 -6 3 -13 2 -17 -4 -3 -5 -12
-10 -18 -10 -7 0 -1 9 12 19 13 10 36 18 50 18 14 0 20 -2 13 -4z m994 -37 c0
-14 -3 -23 -7 -20 -6 3 -6 22 0 42 3 10 7 -2 7 -22z m-641 5 c3 -5 2 -12 -3
-15 -5 -3 -9 1 -9 9 0 17 3 19 12 6z m568 -26 c-3 -9 -8 -14 -10 -11 -3 3 -2
9 2 15 9 16 15 13 8 -4z m-1033 -39 c0 -2 -7 -6 -15 -10 -8 -3 -15 -1 -15 4 0
6 7 10 15 10 8 0 15 -2 15 -4z m1003 -10 c4 -10 1 -13 -8 -9 -8 3 -12 9 -9 14
7 12 11 11 17 -5z m1006 -69 c8 -10 7 -14 -2 -14 -8 0 -14 6 -14 14 0 7 1 13
2 13 2 0 8 -6 14 -13z m-1382 -59 c-3 -8 -6 -5 -6 6 -1 11 2 17 5 13 3 -3 4
-12 1 -19z m-130 -20 c-3 -8 -6 -5 -6 6 -1 11 2 17 5 13 3 -3 4 -12 1 -19z
m30 15 c-4 -3 -1 -13 6 -22 11 -14 10 -14 -5 -2 -16 12 -16 31 -1 31 4 0 3 -3
0 -7z m353 -6 c0 -2 -15 -16 -32 -33 l-33 -29 29 33 c28 30 36 37 36 29z m-23
-61 c0 -8 -4 -14 -8 -13 -4 1 -15 -7 -24 -18 -9 -11 -13 -13 -9 -5 6 14 35 50
39 50 1 0 2 -6 2 -14z m-286 -40 c-7 -9 -8 -17 -2 -20 5 -3 11 -1 13 6 3 8 7
6 11 -5 8 -21 -15 -23 -32 -4 -8 10 -7 17 1 25 17 17 23 15 9 -2z m45 -55 c0
-16 -3 -17 -14 -9 -12 10 -7 19 13 28 1 0 1 -9 1 -19z m1395 -154 l-41 -42
-42 43 -43 42 43 0 c24 0 53 -5 65 -11 20 -9 21 -9 4 5 -18 14 -18 14 0 18 10
3 26 0 37 -5 17 -8 15 -13 -23 -50z m-1114 -87 c-1 -12 -5 -16 -10 -11 -5 5
-6 14 -3 20 11 16 15 13 13 -9z m-1169 -575 c-3 -3 -9 2 -12 12 -6 14 -5 15 5
6 7 -7 10 -15 7 -18z m580 10 c4 -4 -4 -4 -17 0 -14 4 -21 3 -18 -2 4 -5 0
-10 -8 -10 -8 0 -15 4 -15 8 0 5 -8 6 -17 3 -13 -4 -14 -3 -5 3 15 11 69 10
80 -2z m352 -8 c0 -2 -10 -12 -22 -23 l-23 -19 19 23 c18 21 26 27 26 19z
m-1112 -21 c1 -16 8 -38 17 -59 6 -15 10 -16 16 -5 7 10 9 10 9 -2 1 -9 6 -5
15 10 14 25 16 22 19 -25 1 -21 -21 -55 -36 -55 -4 0 -8 7 -8 15 0 8 5 14 12
13 6 -2 13 6 15 17 l3 20 -9 -20 -10 -20 -1 20 -1 20 -9 -20 c-8 -19 -9 -19
-9 -1 -1 11 -4 17 -7 13 -4 -3 -2 -19 4 -35 9 -27 7 -33 -18 -57 -25 -24 -28
-25 -34 -8 -4 9 -4 14 0 11 14 -15 44 13 43 40 -1 21 -2 22 -6 7 -3 -11 -9
-24 -14 -29 -4 -5 -4 7 2 27 7 25 7 43 0 55 -8 13 -10 14 -11 2 0 -13 -1 -13
-10 0 -9 13 -10 13 -10 0 0 -13 -1 -13 -10 0 -9 13 -10 13 -10 0 0 -13 -2 -13
-9 -1 -7 10 -2 24 15 46 24 31 50 42 52 21z m325 -23 c-13 -2 -35 -2 -50 0
-16 2 -5 4 22 4 28 0 40 -2 28 -4z m737 3 c0 -2 -8 -10 -17 -17 -16 -13 -17
-12 -4 4 13 16 21 21 21 13z m-114 -42 c-4 -9 -9 -15 -11 -12 -3 3 -3 13 1 22
4 9 9 15 11 12 3 -3 3 -13 -1 -22z m41 -26 c-3 -8 -6 -5 -6 6 -1 11 2 17 5 13
3 -3 4 -12 1 -19z m-1362 -18 c-3 -5 -16 -10 -28 -9 -20 1 -20 2 3 9 14 4 26
8 28 9 2 1 0 -3 -3 -9z m-85 -30 c-8 -5 -17 -7 -19 -4 -3 3 1 9 9 14 8 5 17 7
19 4 3 -3 -1 -9 -9 -14z m394 -22 c-3 -4 -11 -5 -19 -1 -21 7 -19 12 4 10 11
0 18 -5 15 -9z"/>
<path d="M2195 3100 c-3 -5 -3 -10 1 -10 3 0 -1 -12 -10 -27 l-17 -28 20 24
c12 13 21 29 21 37 0 16 -6 18 -15 4z"/>
<path d="M2135 3011 c-3 -6 -15 -8 -27 -6 -11 3 -18 1 -14 -2 12 -13 35 -11
47 3 6 8 9 14 6 14 -3 0 -8 -4 -12 -9z"/>
<path d="M1750 2659 c0 -5 5 -7 10 -4 6 3 10 8 10 11 0 2 -4 4 -10 4 -5 0 -10
-5 -10 -11z"/>
<path d="M1820 2569 c0 -5 5 -7 10 -4 6 3 10 8 10 11 0 2 -4 4 -10 4 -5 0 -10
-5 -10 -11z"/>
<path d="M2906 2572 c-4 -7 -2 -36 4 -52 1 -3 1 -9 0 -15 -1 -5 2 -6 6 -2 12
11 14 36 4 42 -5 3 -7 12 -3 20 5 16 -2 21 -11 7z"/>
<path d="M2880 2501 c0 -6 4 -13 10 -16 6 -3 7 1 4 9 -7 18 -14 21 -14 7z"/>
<path d="M2894 2315 c0 -14 4 -25 8 -25 4 0 7 11 6 25 -3 33 -16 33 -14 0z"/>
<path d="M1243 1192 l-22 -29 30 2 c19 2 33 -3 39 -14 5 -9 10 -11 10 -4 0 6
-5 15 -10 18 -6 4 -8 10 -5 14 2 5 -1 16 -8 25 -11 16 -14 14 -34 -12z m30 -8
c1 -4 -6 -8 -15 -10 -14 -2 -15 1 -5 17 11 17 14 16 20 -7z"/>
<path d="M4140 3282 c0 -4 17 -6 38 -4 58 5 62 10 10 11 -27 1 -48 -3 -48 -7z"/>
<path d="M2556 3272 c-5 -9 -3 -27 7 -52 3 -8 8 -22 10 -30 4 -10 6 -7 6 7 1
26 28 25 47 -2 8 -10 14 -14 14 -7 0 6 9 9 20 7 12 -2 18 0 15 6 -4 5 -11 6
-17 3 -6 -4 -8 -2 -5 3 4 6 20 9 37 8 17 -1 33 1 36 6 3 5 2 8 -3 7 -4 -1 -25
4 -45 11 -21 7 -42 9 -48 6 -6 -4 -25 -9 -43 -12 -29 -4 -30 -4 -16 13 12 15
12 16 0 9 -11 -6 -13 -4 -8 8 7 18 2 23 -7 9z"/>
<path d="M2653 3262 c22 -11 72 -22 120 -26 45 -3 96 -10 112 -14 19 -6 48 -4
79 4 56 15 76 28 25 17 -19 -5 -50 -8 -69 -8 -63 1 -234 24 -285 39 -11 4 -3
-2 18 -12z"/>
<path d="M2295 3240 c-4 -6 -10 -8 -14 -6 -4 3 -8 -1 -8 -9 0 -8 4 -12 9 -9 7
5 12 -10 9 -29 -1 -5 3 -6 9 -2 6 4 7 12 0 24 -6 12 -5 22 2 29 7 7 9 12 6 12
-4 0 -10 -5 -13 -10z"/>
<path d="M4056 3227 c3 -10 9 -15 12 -12 3 3 0 11 -7 18 -10 9 -11 8 -5 -6z"/>
<path d="M4320 3229 c0 -5 5 -7 10 -4 6 3 10 8 10 11 0 2 -4 4 -10 4 -5 0 -10
-5 -10 -11z"/>
<path d="M2229 3215 c-1 -3 -3 -9 -4 -15 -1 -5 -3 -13 -4 -17 0 -4 -8 2 -17
13 -14 18 -15 18 -4 -5 12 -24 31 -17 36 14 2 13 -4 22 -7 10z"/>
<path d="M2595 3200 c-3 -5 -1 -10 5 -10 6 0 8 -5 4 -12 -4 -7 -3 -8 4 -4 6 4
9 13 5 21 -6 18 -10 19 -18 5z"/>
<path d="M2261 3187 c-8 -10 -7 -14 2 -14 8 0 14 6 14 14 0 7 -1 13 -2 13 -2
0 -8 -6 -14 -13z"/>
<path d="M4276 3183 c-6 -14 -5 -15 5 -6 7 7 10 15 7 18 -3 3 -9 -2 -12 -12z"/>
<path d="M2784 3138 l-19 -23 23 19 c12 11 22 21 22 23 0 8 -8 2 -26 -19z"/>
<path d="M4250 3150 c-9 -6 -10 -10 -3 -10 6 0 15 5 18 10 8 12 4 12 -15 0z"/>
<path d="M4214 3108 l-19 -23 23 19 c12 11 22 21 22 23 0 8 -8 2 -26 -19z"/>
<path d="M2320 3113 c0 -4 5 -15 10 -23 8 -13 10 -13 10 2 0 9 -4 20 -10 23
-5 3 -10 3 -10 -2z"/>
<path d="M2743 3101 c-6 -9 -30 -23 -53 -30 -23 -7 -40 -14 -38 -16 2 -3 21 1
41 7 35 11 75 43 66 53 -3 2 -10 -4 -16 -14z"/>
<path d="M3553 3105 c-3 -9 -3 -18 -1 -21 3 -3 8 4 11 16 6 23 -1 27 -10 5z"/>
<path d="M2300 3096 c0 -9 -4 -16 -10 -16 -14 0 -13 -27 2 -36 7 -5 8 -3 4 5
-5 7 -1 20 9 31 11 12 13 20 6 25 -6 3 -11 -1 -11 -9z"/>
<path d="M3506 3088 c-14 -55 10 -188 34 -188 5 0 2 17 -7 38 -9 21 -17 67
-17 104 -1 38 -2 68 -2 68 -1 0 -4 -10 -8 -22z"/>
<path d="M3597 3081 c3 -12 11 -17 19 -14 8 3 14 0 14 -6 0 -6 -4 -11 -10 -11
-6 0 -6 -8 1 -23 10 -23 48 -32 60 -14 3 4 14 -9 24 -30 16 -33 19 -35 26 -18
4 12 8 14 8 6 1 -8 4 -12 7 -9 16 17 -67 111 -113 129 -35 13 -42 11 -36 -10z
m63 -50 c0 -4 -6 -8 -14 -8 -8 0 -12 6 -9 14 5 13 23 9 23 -6z"/>
<path d="M4100 3058 c0 -24 -3 -53 -6 -64 -9 -34 50 -85 124 -108 58 -17 64
-17 87 -2 14 9 25 21 25 27 0 17 -48 59 -68 59 -10 0 -33 14 -50 31 -18 17
-32 28 -32 25 0 -15 34 -73 58 -98 24 -27 25 -28 5 -28 -11 0 -26 7 -33 15 -7
8 -16 13 -20 10 -14 -9 -49 29 -66 70 l-16 40 30 -29 c25 -23 30 -25 26 -10
-4 21 12 47 36 57 9 3 6 6 -10 6 -14 1 -33 10 -43 21 -29 34 -47 25 -47 -22z
m174 -124 c17 -6 22 -24 8 -24 -5 0 -17 7 -28 15 -19 15 -8 20 20 9z"/>
<path d="M4549 3083 c-13 -16 -12 -17 4 -4 9 7 17 15 17 17 0 8 -8 3 -21 -13z"/>
<path d="M1445 3031 c-9 -28 -14 -59 -12 -68 4 -15 5 -14 6 3 0 12 8 41 16 64
8 24 13 45 11 47 -2 2 -12 -18 -21 -46z"/>
<path d="M3258 3073 c7 -3 16 -2 19 1 4 3 -2 6 -13 5 -11 0 -14 -3 -6 -6z"/>
<path d="M2245 3047 c-35 -38 -65 -84 -58 -91 3 -3 2 -6 -4 -6 -11 0 -36 -50
-29 -57 2 -3 -4 -13 -15 -24 -21 -21 -25 -39 -9 -39 5 0 29 41 53 90 24 50 46
87 50 84 4 -4 7 0 7 9 0 10 5 16 11 15 6 -2 13 7 15 20 5 27 4 27 -21 -1z"/>
<path d="M1169 3043 c-13 -16 -12 -17 4 -4 9 7 17 15 17 17 0 8 -8 3 -21 -13z"/>
<path d="M1992 3023 c-18 -21 -32 -40 -32 -43 0 -3 17 -6 38 -5 37 0 37 0 38
43 1 23 -2 42 -5 42 -4 0 -21 -17 -39 -37z m34 -8 c-3 -19 -13 -28 -32 -31
-12 -2 -10 4 7 22 26 28 28 29 25 9z"/>
<path d="M2694 3033 c-9 -16 -30 -48 -47 -73 l-29 -45 38 45 c22 24 39 46 39
50 1 3 6 15 13 28 18 32 6 27 -14 -5z"/>
<path d="M3542 3035 c0 -16 2 -22 5 -12 2 9 2 23 0 30 -3 6 -5 -1 -5 -18z"/>
<path d="M4315 3024 c-22 -7 -34 -13 -27 -13 7 -1 10 -6 6 -13 -5 -8 0 -9 17
-4 13 4 39 9 56 13 18 3 38 12 44 19 9 11 6 14 -15 14 -19 0 -25 -4 -20 -12 6
-10 4 -10 -7 -2 -10 8 -25 7 -54 -2z"/>
<path d="M4506 3017 c3 -10 9 -15 12 -12 3 3 0 11 -7 18 -10 9 -11 8 -5 -6z"/>
<path d="M3823 2935 c0 -27 2 -38 4 -22 2 15 2 37 0 50 -2 12 -4 0 -4 -28z"/>
<path d="M5420 2970 c0 -5 5 -10 10 -10 6 0 10 5 10 10 0 6 -4 10 -10 10 -5 0
-10 -4 -10 -10z"/>
<path d="M2040 2961 c0 -7 -4 -10 -9 -6 -5 3 -12 1 -15 -4 -4 -5 -2 -12 3 -15
11 -7 36 22 27 31 -3 3 -6 1 -6 -6z"/>
<path d="M5350 2951 c14 -4 43 -11 65 -14 l40 -6 -40 14 c-22 7 -51 13 -65 13
l-25 0 25 -7z"/>
<path d="M3750 2945 c0 -5 5 -17 10 -25 5 -8 10 -10 10 -5 0 6 -5 17 -10 25
-5 8 -10 11 -10 5z"/>
<path d="M2318 2915 c-18 -16 -23 -25 -15 -29 7 -4 2 -4 -10 -2 -13 2 -26 -1
-30 -6 -3 -7 -1 -8 5 -4 7 4 12 2 12 -3 0 -6 -7 -11 -16 -11 -8 0 -12 -5 -9
-10 4 -6 11 -8 16 -5 5 4 9 2 9 -4 0 -5 -4 -13 -10 -16 -5 -3 -10 -11 -10 -18
0 -21 23 11 25 35 1 12 7 24 15 26 9 3 10 0 4 -9 -6 -12 -5 -12 10 0 11 10 14
17 6 25 -7 7 -3 17 12 33 28 30 21 29 -14 -2z"/>
<path d="M3922 2915 c0 -16 2 -22 5 -12 2 9 2 23 0 30 -3 6 -5 -1 -5 -18z"/>
<path d="M5260 2933 c0 -5 18 -8 40 -8 23 -1 34 2 27 7 -15 10 -67 10 -67 1z"/>
<path d="M1423 2850 c0 -47 2 -66 4 -42 2 23 2 61 0 85 -2 23 -4 4 -4 -43z"/>
<path d="M4369 2913 c-13 -16 -12 -17 4 -4 9 7 17 15 17 17 0 8 -8 3 -21 -13z"/>
<path d="M5470 2916 c0 -2 8 -10 18 -17 15 -13 16 -12 3 4 -13 16 -21 21 -21
13z"/>
<path d="M2605 2899 c-4 -6 -5 -12 -2 -15 2 -3 7 2 10 11 7 17 1 20 -8 4z"/>
<path d="M3776 2879 c3 -16 0 -30 -10 -38 -9 -8 -16 -18 -16 -23 0 -6 7 -5 15
2 20 16 37 2 39 -32 1 -16 8 -24 25 -26 15 -2 21 0 17 7 -12 19 12 12 26 -7 7
-10 30 -31 51 -46 20 -16 37 -33 37 -38 0 -5 -4 -7 -9 -4 -5 4 -8 -1 -7 -9 3
-18 16 -32 16 -17 0 16 37 15 43 0 10 -29 16 1 6 35 -6 22 -22 45 -42 59 -18
12 -33 26 -35 30 -2 4 -8 8 -13 8 -5 0 0 -13 12 -30 12 -16 26 -27 30 -24 8 5
22 -14 25 -34 2 -10 -1 -10 -12 -1 -7 6 -11 15 -8 20 3 5 -1 6 -8 4 -21 -8
-93 59 -117 107 -18 37 -21 40 -22 18 -1 -24 -1 -24 -14 5 -7 17 -11 34 -7 39
3 5 0 6 -6 2 -5 -3 -13 0 -16 6 -3 7 -3 1 0 -13z"/>
<path d="M2978 2848 c-9 -57 -1 -103 20 -120 13 -11 14 -11 6 2 -5 8 -11 49
-14 90 -5 74 -5 75 -12 28z"/>
<path d="M4790 2879 c0 -5 5 -7 10 -4 6 3 10 8 10 11 0 2 -4 4 -10 4 -5 0 -10
-5 -10 -11z"/>
<path d="M5570 2871 c5 -11 14 -44 19 -73 7 -44 9 -47 10 -18 1 44 -17 110
-30 110 -6 0 -6 -7 1 -19z"/>
<path d="M3931 2864 c0 -11 3 -14 6 -6 3 7 2 16 -1 19 -3 4 -6 -2 -5 -13z"/>
<path d="M4026 2855 c-9 -26 -7 -32 5 -12 6 10 9 21 6 23 -2 3 -7 -2 -11 -11z"/>
<path d="M4723 2839 c-35 -22 -46 -37 -15 -20 22 13 58 40 52 41 -3 0 -20 -10
-37 -21z"/>
<path d="M5510 2838 c-1 -16 -4 -32 -5 -38 -1 -5 -3 -16 -5 -22 -1 -7 -6 2
-11 21 -14 47 -19 34 -10 -24 l8 -50 17 39 c9 21 15 52 13 70 -4 30 -4 30 -7
4z"/>
<path d="M3350 2846 c0 -2 8 -10 18 -17 15 -13 16 -12 3 4 -13 16 -21 21 -21
13z"/>
<path d="M4234 2824 c-18 -14 -18 -15 4 -4 12 6 22 13 22 15 0 8 -5 6 -26 -11z"/>
<path d="M5820 2819 c0 -5 5 -7 10 -4 6 3 10 8 10 11 0 2 -4 4 -10 4 -5 0 -10
-5 -10 -11z"/>
<path d="M2230 2805 c-7 -9 -8 -15 -2 -15 5 0 12 7 16 15 3 8 4 15 2 15 -2 0
-9 -7 -16 -15z"/>
<path d="M2388 2797 c4 -16 6 -17 13 -4 5 9 20 14 39 12 16 -1 30 1 30 4 0 4
-20 7 -44 7 -38 0 -43 -2 -38 -19z"/>
<path d="M2480 2810 c0 -3 13 -18 28 -33 l28 -27 0 32 c-1 29 -4 33 -28 34
-16 1 -28 -2 -28 -6z m42 -9 c8 11 9 11 6 1 -4 -16 -22 -18 -24 -2 -2 7 -1 6
3 -1 4 -8 8 -7 15 2z"/>
<path d="M3390 2816 c0 -2 8 -10 18 -17 15 -13 16 -12 3 4 -13 16 -21 21 -21
13z"/>
<path d="M4030 2817 c0 -5 8 -23 18 -40 9 -18 18 -33 19 -35 3 -8 84 23 96 36
10 12 6 12 -20 -1 -48 -25 -71 -21 -93 16 -11 17 -20 28 -20 24z"/>
<path d="M3950 2805 c0 -5 10 -21 21 -35 13 -17 17 -18 10 -5 -17 33 -31 51
-31 40z"/>
<path d="M4864 2785 c-19 -14 -19 -14 2 -15 12 0 21 6 21 15 0 18 1 18 -23 0z"/>
<path d="M2244 2779 c-3 -6 -1 -16 6 -22 10 -9 11 -9 5 2 -4 8 -2 17 6 22 9 6
10 9 2 9 -6 0 -15 -5 -19 -11z"/>
<path d="M2209 2759 c-15 -28 3 -46 22 -22 13 16 12 17 -3 4 -20 -15 -23 -9
-8 20 6 10 8 19 6 19 -3 0 -10 -9 -17 -21z"/>
<path d="M1432 2730 c0 -14 2 -19 5 -12 2 6 2 18 0 25 -3 6 -5 1 -5 -13z"/>
<path d="M2378 2732 c-4 -12 -2 -24 2 -27 13 -8 18 8 10 29 -6 19 -7 19 -12
-2z"/>
<path d="M4764 2724 c-18 -14 -18 -15 4 -4 12 6 22 13 22 15 0 8 -5 6 -26 -11z"/>
<path d="M2303 2695 c-13 -29 -1 -42 17 -20 7 8 16 12 21 9 12 -7 11 7 -1 26
-8 12 -10 12 -11 -5 0 -17 -1 -18 -7 -3 -6 15 -9 14 -19 -7z"/>
<path d="M3777 2714 c-6 -7 19 -64 29 -64 2 0 -2 13 -10 29 -9 16 -12 31 -9
35 4 3 4 6 1 6 -2 0 -7 -3 -11 -6z"/>
<path d="M4030 2706 c0 -2 9 -6 20 -9 11 -3 18 -1 14 4 -5 9 -34 13 -34 5z"/>
<path d="M3505 2680 c10 -11 20 -20 23 -20 3 0 -3 9 -13 20 -10 11 -20 20 -23
20 -3 0 3 -9 13 -20z"/>
<path d="M3720 2680 c-19 -11 -55 -22 -80 -25 -78 -11 -80 -13 -70 -41 6 -14
10 -39 10 -55 0 -28 1 -29 48 -27 l47 1 -42 4 c-36 4 -43 8 -43 26 0 12 -3 33
-7 46 -4 17 -3 22 5 17 7 -4 12 -2 12 5 0 6 8 9 20 6 11 -3 23 -1 26 5 3 5 15
-5 26 -24 11 -18 32 -45 46 -60 l26 -28 -30 -1 c-16 -1 3 -5 41 -10 39 -4 86
-6 105 -3 27 3 31 2 15 -5 -19 -9 -19 -10 2 -10 12 -1 29 -4 38 -8 16 -5 15
-4 -1 15 -10 12 -29 22 -42 22 -13 0 -21 4 -18 9 3 4 -6 13 -19 19 -14 7 -25
19 -25 29 0 15 2 15 15 -3 8 -10 15 -15 15 -10 0 5 12 -1 28 -15 l27 -24 -24
27 c-14 16 -26 26 -29 24 -8 -9 -93 87 -88 100 3 8 4 14 3 13 -1 -1 -18 -9
-37 -19z m54 -62 c-5 -7 9 -12 28 -9 4 0 5 -6 1 -15 -5 -13 -9 -12 -29 7 -13
12 -21 25 -19 29 3 5 -2 10 -10 14 -8 3 -15 10 -15 16 0 5 11 0 25 -12 13 -11
22 -25 19 -30z m-75 17 c5 2 18 -6 30 -19 16 -17 18 -23 7 -23 -8 0 -14 5 -13
10 1 5 -4 12 -12 15 -9 3 -11 0 -7 -9 4 -8 0 -5 -8 5 -9 11 -16 25 -15 30 0 6
3 5 6 -2 2 -6 8 -10 12 -7z m105 -82 l41 -23 -36 0 c-24 0 -42 7 -57 23 -19
20 -20 24 -5 24 9 0 35 -11 57 -24z"/>
<path d="M2290 2645 c13 -16 4 -39 -11 -29 -6 3 -5 -3 2 -15 l13 -20 23 21
c18 17 20 25 12 40 -6 11 -13 17 -16 14 -3 -3 -2 -11 3 -19 5 -7 2 -5 -8 5
-19 21 -36 24 -18 3z"/>
<path d="M5270 2630 c0 -5 5 -10 11 -10 5 0 7 5 4 10 -3 6 -8 10 -11 10 -2 0
-4 -4 -4 -10z"/>
<path d="M4062 2590 c0 -14 2 -19 5 -12 2 6 2 18 0 25 -3 6 -5 1 -5 -13z"/>
<path d="M2273 2538 c-2 -16 1 -18 10 -9 7 7 8 14 1 21 -6 6 -10 2 -11 -12z"/>
<path d="M3298 2543 c7 -3 16 -2 19 1 4 3 -2 6 -13 5 -11 0 -14 -3 -6 -6z"/>
<path d="M3356 2524 c-3 -9 -6 -22 -6 -29 0 -8 -5 -26 -11 -42 -10 -27 -11
-27 -21 -8 -14 26 -49 65 -59 65 -4 0 5 -12 20 -27 15 -16 34 -49 41 -75 13
-44 14 -45 26 -23 6 13 17 39 24 59 6 20 15 36 18 36 4 0 18 -23 32 -51 14
-28 36 -63 50 -78 l25 -26 3 30 c2 16 -1 31 -7 33 -6 2 -11 8 -11 13 0 6 4 8
9 4 10 -6 4 48 -10 95 -4 15 -6 0 -5 -41 2 -36 6 -72 11 -78 5 -9 2 -12 -11
-9 -16 3 -19 13 -19 70 0 36 -3 70 -7 74 -5 4 -8 -7 -8 -25 l0 -33 -19 23
c-11 13 -15 26 -10 27 5 2 9 8 9 13 0 4 -6 6 -14 3 -8 -3 -17 -1 -21 5 -9 16
-22 13 -29 -5z"/>
<path d="M3723 2473 c9 -2 23 -2 30 0 6 3 -1 5 -18 5 -16 0 -22 -2 -12 -5z"/>
<path d="M3783 2463 c9 -2 23 -2 30 0 6 3 -1 5 -18 5 -16 0 -22 -2 -12 -5z"/>
<path d="M3853 2450 c60 -18 68 -52 20 -90 l-25 -20 28 -10 c15 -6 37 -9 48
-7 16 3 15 5 -6 6 -39 2 -42 15 -13 57 14 20 25 40 25 45 0 4 -17 13 -37 18
-45 13 -81 13 -40 1z"/>
<path d="M4324 2404 c-19 -15 -19 -15 1 -6 11 5 27 12 35 15 13 5 13 6 -1 6
-8 1 -24 -6 -35 -15z"/>
<path d="M4411 2416 c2 -2 24 -6 49 -9 30 -4 38 -3 25 3 -19 8 -83 14 -74 6z"/>
<path d="M5746 2403 c-6 -14 -5 -15 5 -6 7 7 10 15 7 18 -3 3 -9 -2 -12 -12z"/>
<path d="M4105 2401 c-3 -5 -2 -12 3 -15 5 -3 9 1 9 9 0 17 -3 19 -12 6z"/>
<path d="M4511 2396 c2 -2 15 -9 29 -15 24 -11 24 -11 6 3 -16 13 -49 24 -35
12z"/>
<path d="M4226 2336 c-55 -47 -65 -52 -78 -40 -8 8 -32 17 -54 19 -34 4 -35 4
-9 -3 17 -5 41 -14 53 -21 l24 -13 -24 -26 c-33 -38 3 -11 67 50 28 26 61 56
75 67 14 11 22 20 18 21 -4 0 -36 -24 -72 -54z"/>
<path d="M5695 2348 c22 -27 41 -48 43 -48 7 0 -36 56 -59 75 -12 11 -5 -1 16
-27z"/>
<path d="M5945 2379 c-4 -6 -5 -12 -2 -15 2 -3 7 2 10 11 7 17 1 20 -8 4z"/>
<path d="M3341 2328 c-1 -15 4 -30 9 -33 12 -7 12 12 0 40 -8 18 -9 17 -9 -7z"/>
<path d="M2483 2304 c-12 -20 -17 -50 -17 -127 -1 -56 3 -111 8 -122 5 -11 10
-24 12 -30 1 -5 7 -21 13 -35 l12 -25 -6 25 c-2 14 -5 40 -5 58 0 23 -4 31
-12 26 -7 -5 -8 -3 -3 6 9 14 13 170 4 164 -3 -1 -6 3 -6 11 0 8 4 12 10 8 5
-3 7 5 6 18 -2 13 0 30 4 37 16 24 -3 12 -20 -14z"/>
<path d="M3676 2317 c3 -10 9 -15 12 -12 3 3 0 11 -7 18 -10 9 -11 8 -5 -6z"/>
<path d="M5572 2308 c-7 -9 -2 -27 20 -63 17 -27 27 -42 24 -32 -14 45 64 -14
108 -82 20 -29 36 -51 36 -47 0 13 -22 50 -54 91 -17 21 -31 44 -31 50 0 5 -6
10 -14 10 -8 0 -16 6 -19 14 -3 9 0 11 8 6 8 -5 11 -4 6 3 -4 6 -13 9 -20 6
-8 -3 -17 0 -21 5 -3 6 -10 9 -15 6 -5 -3 -12 0 -16 6 -4 7 -3 9 4 5 6 -3 9 0
8 9 -3 22 -12 27 -24 13z"/>
<path d="M5230 2299 l-25 -8 25 2 c14 1 30 -1 35 -5 18 -11 120 -48 133 -48
10 0 10 3 0 14 -7 8 -16 12 -19 10 -4 -2 -33 7 -65 19 -41 16 -67 21 -84 16z"/>
<path d="M5610 2291 c0 -5 5 -13 10 -16 6 -3 10 -2 10 4 0 5 -4 13 -10 16 -5
3 -10 2 -10 -4z"/>
<path d="M3512 2268 c9 -16 12 -35 8 -61 -4 -21 -3 -34 1 -30 23 24 18 98 -8
107 -14 6 -14 4 -1 -16z"/>
<path d="M5063 2283 c9 -2 25 -2 35 0 9 3 1 5 -18 5 -19 0 -27 -2 -17 -5z"/>
<path d="M5008 2273 c6 -2 18 -2 25 0 6 3 1 5 -13 5 -14 0 -19 -2 -12 -5z"/>
<path d="M4958 2263 c7 -3 16 -2 19 1 4 3 -2 6 -13 5 -11 0 -14 -3 -6 -6z"/>
<path d="M2675 2249 c-4 -6 -5 -12 -2 -15 2 -3 7 2 10 11 7 17 1 20 -8 4z"/>
<path d="M4900 2250 c-18 -12 -2 -12 25 0 13 6 15 9 5 9 -8 0 -22 -4 -30 -9z"/>
<path d="M3435 2225 c11 -61 15 -78 20 -83 10 -11 3 44 -11 78 -13 33 -14 34
-9 5z"/>
<path d="M3827 2243 c-10 -9 -9 -33 1 -33 4 0 8 9 8 20 0 23 0 22 -9 13z"/>
<path d="M4671 2223 c-1 -39 8 -65 20 -57 5 3 6 10 3 16 -4 6 -11 25 -15 42
l-7 31 -1 -32z"/>
<path d="M4840 2230 c-8 -5 -10 -10 -5 -10 6 0 17 5 25 10 8 5 11 10 5 10 -5
0 -17 -5 -25 -10z"/>
<path d="M1200 2198 c0 -11 12 -10 30 2 12 7 10 9 -8 7 -12 0 -22 -5 -22 -9z"/>
<path d="M5442 2190 c9 -6 26 -26 38 -45 12 -19 26 -33 31 -30 5 4 6 -1 3 -9
-3 -8 0 -24 6 -36 6 -11 11 -50 11 -86 l0 -65 21 28 c43 57 45 59 26 44 -16
-12 -18 -11 -18 16 0 16 -7 52 -15 81 -13 42 -23 56 -61 81 -25 17 -48 31 -52
31 -4 0 1 -5 10 -10z"/>
<path d="M5760 2171 c0 -6 5 -13 11 -17 6 -3 9 -19 6 -33 -4 -19 0 -32 11 -42
9 -8 25 -26 34 -39 l17 -25 0 25 c1 14 -2 43 -6 65 -7 39 -7 40 -13 10 -6 -32
-23 -37 -28 -8 -3 15 -1 16 7 3 19 -27 12 -2 -10 34 -21 37 -29 44 -29 27z
m67 -96 c0 -8 -4 -12 -9 -9 -5 3 -6 10 -3 15 9 13 12 11 12 -6z"/>
<path d="M3093 2123 c9 -2 25 -2 35 0 9 3 1 5 -18 5 -19 0 -27 -2 -17 -5z"/>
<path d="M3223 2123 c14 -4 17 -11 13 -36 l-6 -32 11 28 c6 15 15 27 20 27 21
0 51 -23 69 -53 11 -18 20 -25 20 -16 0 33 -84 91 -128 88 -15 -1 -14 -2 1 -6z"/>
<path d="M3342 2110 c0 -14 2 -19 5 -12 2 6 2 18 0 25 -3 6 -5 1 -5 -13z"/>
<path d="M3897 2109 c-9 -34 5 -80 20 -71 9 6 9 17 -1 52 -12 40 -13 41 -19
19z"/>
<path d="M2995 2104 c-22 -8 -62 -19 -90 -23 -43 -8 -45 -9 -15 -10 19 0 69
10 110 24 41 13 66 24 55 24 -11 0 -38 -7 -60 -15z"/>
<path d="M5622 2100 c0 -14 2 -19 5 -12 2 6 2 18 0 25 -3 6 -5 1 -5 -13z"/>
<path d="M3803 2083 c20 -21 26 -35 20 -49 -6 -17 -5 -18 9 -3 18 18 13 69 -7
69 -8 0 -22 3 -32 7 -13 4 -11 -2 10 -24z"/>
<path d="M4412 2060 c0 -19 2 -27 5 -17 2 9 2 25 0 35 -3 9 -5 1 -5 -18z"/>
<path d="M2541 2054 c0 -11 3 -14 6 -6 3 7 2 16 -1 19 -3 4 -6 -2 -5 -13z"/>
<path d="M5756 2055 c-3 -8 -1 -15 4 -15 6 0 10 7 10 15 0 8 -2 15 -4 15 -2 0
-6 -7 -10 -15z"/>
<path d="M2850 2054 c0 -10 23 -34 63 -63 16 -12 17 -10 17 30 0 30 -3 39 -9
30 -5 -8 -7 -20 -4 -28 3 -7 0 -13 -6 -13 -6 0 -11 5 -11 11 0 5 -4 8 -9 4 -5
-3 -17 5 -25 17 -9 12 -16 18 -16 12z"/>
<path d="M4082 2048 c-8 -8 -7 -15 6 -24 22 -17 32 -17 32 0 0 22 -24 38 -38
24z"/>
<path d="M3211 2008 c-25 -87 -25 -85 -10 -67 8 9 28 20 44 24 32 7 99 45 92
51 -2 3 -24 -7 -48 -21 -51 -29 -84 -33 -75 -9 11 28 18 64 14 64 -3 0 -10
-19 -17 -42z"/>
<path d="M4711 2040 c0 -8 4 -24 9 -35 l9 -20 0 20 c0 11 -4 27 -9 35 -9 13
-10 13 -9 0z"/>
<path d="M5596 2023 c-6 -14 -5 -15 5 -6 7 7 10 15 7 18 -3 3 -9 -2 -12 -12z"/>
<path d="M4000 2021 c0 -6 4 -13 10 -16 6 -3 7 1 4 9 -7 18 -14 21 -14 7z"/>
<path d="M5768 2005 c-6 -30 -3 -43 8 -33 3 4 4 19 2 35 l-3 28 -7 -30z"/>
<path d="M3940 2016 c0 -2 8 -10 18 -17 15 -13 16 -12 3 4 -13 16 -21 21 -21
13z"/>
<path d="M5240 2004 c25 -7 62 -21 83 -30 l37 -17 -22 -26 -22 -26 23 22 24
22 30 -21 c23 -16 26 -23 15 -30 -10 -8 -9 -9 3 -5 27 9 41 -14 22 -35 -10
-12 -12 -18 -4 -18 7 0 9 -5 6 -10 -4 -6 -11 -7 -17 -4 -8 5 -9 1 -5 -11 6
-14 3 -17 -18 -13 -13 3 -22 2 -20 -2 2 -4 -26 -12 -62 -19 -72 -13 -169 -45
-245 -80 -70 -31 -59 -34 20 -4 87 33 120 43 161 49 43 5 41 4 -35 -38 -131
-70 -213 -121 -209 -129 3 -4 -7 -12 -22 -18 -27 -10 -26 -10 7 -5 19 4 46 14
60 23 24 15 24 15 11 -2 -8 -10 -61 -49 -118 -88 -57 -38 -100 -69 -95 -69 12
0 192 120 247 164 65 53 258 183 281 190 25 8 68 -32 90 -81 10 -23 13 -24 13
-7 1 11 7 26 13 32 10 10 16 8 30 -10 l18 -23 -6 33 c-6 29 -2 39 32 75 l39
42 -39 -35 c-24 -22 -40 -30 -43 -23 -19 52 -87 134 -143 171 -55 37 -145 74
-174 71 -6 -1 9 -7 34 -15z m220 -154 c-13 -9 -8 -14 12 -12 3 1 9 -5 12 -14
3 -8 2 -13 -2 -10 -4 2 -14 1 -22 -5 -13 -7 -12 -9 3 -9 9 0 20 0 23 1 6 0 34
-48 34 -60 0 -3 -11 6 -25 21 -13 14 -34 29 -45 33 -24 8 -27 25 -3 25 13 0
14 3 5 12 -17 17 -15 28 6 28 14 0 15 -2 2 -10z m30 -115 c0 -8 -4 -15 -10
-15 -5 0 -10 7 -10 15 0 8 5 15 10 15 6 0 10 -7 10 -15z"/>
<path d="M4130 2006 c0 -2 8 -10 18 -17 15 -13 16 -12 3 4 -13 16 -21 21 -21
13z"/>
<path d="M4030 1975 c0 -8 5 -17 10 -20 6 -3 10 -11 10 -17 0 -6 -10 -3 -22 8
-23 19 -23 19 -5 -2 9 -11 24 -21 32 -21 17 0 20 13 5 22 -15 9 -12 38 3 29 6
-4 8 -3 4 1 -13 15 -37 14 -37 0z"/>
<path d="M4215 1930 c27 -27 51 -50 54 -50 3 0 -17 23 -44 50 -27 28 -51 50
-54 50 -3 0 17 -22 44 -50z"/>
<path d="M4730 1956 c0 -14 4 -27 8 -30 5 -3 6 8 4 25 -5 35 -12 38 -12 5z"/>
<path d="M3900 1964 c0 -7 82 -66 86 -61 5 5 -16 56 -25 58 -12 3 -61 5 -61 3z
m70 -34 c6 -11 8 -20 6 -20 -3 0 -10 9 -16 20 -6 11 -8 20 -6 20 3 0 10 -9 16
-20z"/>
<path d="M2912 1925 c0 -16 2 -22 5 -12 2 9 2 23 0 30 -3 6 -5 -1 -5 -18z"/>
<path d="M3166 1864 c-10 -31 -16 -58 -14 -60 3 -2 12 21 22 52 10 31 16 58
14 60 -3 2 -12 -21 -22 -52z"/>
<path d="M4351 1873 c-6 -21 -11 -46 -11 -55 0 -10 -3 -18 -7 -18 -5 0 -6 -22
-5 -49 3 -38 -3 -61 -28 -111 -36 -71 -37 -92 -1 -25 13 25 27 42 32 39 5 -3
9 25 9 63 0 37 7 95 14 128 16 67 13 88 -3 28z"/>
<path d="M4742 1880 c0 -19 2 -27 5 -17 2 9 2 25 0 35 -3 9 -5 1 -5 -18z"/>
<path d="M2773 1883 c9 -2 25 -2 35 0 9 3 1 5 -18 5 -19 0 -27 -2 -17 -5z"/>
<path d="M2718 1873 c7 -3 16 -2 19 1 4 3 -2 6 -13 5 -11 0 -14 -3 -6 -6z"/>
<path d="M2831 1876 c2 -2 18 -6 34 -10 22 -5 26 -4 15 4 -14 9 -59 15 -49 6z"/>
<path d="M2902 1840 c0 -14 2 -19 5 -12 2 6 2 18 0 25 -3 6 -5 1 -5 -13z"/>
<path d="M3631 1758 c-43 -51 -73 -78 -87 -78 -11 0 -31 -11 -44 -25 -13 -14
-29 -25 -35 -25 -12 0 -31 32 -38 65 -4 18 -5 18 -6 -2 -1 -20 -6 -23 -46 -23
-25 0 -45 -3 -45 -8 0 -4 20 -6 44 -4 37 3 46 0 64 -22 l20 -26 33 27 c18 16
30 23 27 17 -4 -6 -9 -21 -12 -35 -3 -13 -11 -49 -19 -79 -17 -63 -29 -156
-17 -125 4 11 14 52 20 90 13 70 43 122 128 224 l28 33 1 -123 c0 -205 45
-349 141 -452 48 -51 147 -107 190 -107 12 0 22 -3 22 -6 0 -12 -124 -154
-135 -154 -25 0 -197 95 -262 145 -40 30 -74 55 -76 55 -1 0 -3 -10 -4 -22 -1
-13 -5 -38 -8 -55 l-6 -33 -87 0 c-80 1 -237 22 -249 34 -3 3 10 44 29 92 l35
88 133 43 c73 23 137 40 143 36 6 -3 7 -1 3 5 -8 13 -49 7 -121 -19 -48 -17
-80 -23 -117 -20 -15 1 -13 10 12 79 48 131 58 150 110 202 27 27 45 50 41 50
-5 0 -27 -20 -50 -45 -39 -43 -43 -45 -123 -55 -45 -5 -86 -10 -90 -10 -5 0
-8 -7 -8 -15 0 -17 -17 -20 -22 -5 -2 7 -19 8 -44 4 l-41 -6 -6 -72 c-6 -89
-35 -186 -94 -325 -59 -139 -107 -271 -108 -296 0 -11 -4 -24 -10 -28 -6 -5
-3 -7 7 -4 9 3 24 -3 34 -14 17 -19 7 -28 -12 -9 -14 14 -2 -76 16 -116 13
-29 44 -50 86 -59 11 -2 39 -8 64 -14 25 -5 57 -8 73 -7 15 2 29 0 32 -4 6 -9
192 -3 208 7 7 4 23 6 36 4 13 -1 21 1 18 6 -4 5 4 9 16 8 12 -1 26 0 32 3 5
3 20 7 32 8 13 2 49 15 81 29 31 15 64 28 72 30 25 5 110 56 106 63 -4 8 -3 8
131 12 50 2 91 7 90 11 -1 4 3 7 8 7 6 0 9 -3 8 -6 -1 -4 55 -7 123 -7 68 0
124 3 124 7 0 4 7 5 15 2 8 -3 65 -7 127 -7 l113 -2 3 -31 c3 -30 5 -32 58
-38 94 -11 159 -40 250 -113 153 -121 137 -114 263 -114 110 1 136 4 199 23
28 8 32 14 32 46 0 20 -7 49 -14 65 -17 31 -12 33 39 11 21 -9 49 -14 61 -11
13 2 22 1 19 -3 -5 -9 182 -53 194 -46 5 3 11 0 14 -6 3 -10 7 -10 19 0 13 10
18 10 24 1 5 -8 3 -9 -6 -4 -9 6 -11 4 -5 -4 4 -8 21 -11 40 -9 19 2 31 0 29
-4 -3 -4 7 -8 21 -8 18 0 24 4 19 13 -4 6 1 5 12 -4 11 -10 35 -16 56 -15 20
0 34 -2 32 -5 -2 -3 13 -6 33 -7 19 -1 45 -4 56 -8 14 -4 17 -3 12 6 -6 9 -3
9 14 1 23 -13 108 -10 130 3 9 6 12 5 8 -1 -4 -7 14 -9 51 -7 31 1 69 3 83 3
14 1 34 8 45 17 10 8 13 13 7 9 -15 -7 -17 4 -4 24 6 9 10 10 16 2 5 -9 10 -9
21 0 11 9 14 7 14 -10 0 -23 10 -27 27 -10 9 9 11 8 9 -4 -1 -9 -6 -20 -11
-24 -4 -4 -5 -2 0 6 5 10 4 12 -4 7 -20 -13 -1 -26 37 -26 20 0 44 -4 52 -10
9 -6 17 -5 22 3 5 8 8 5 8 -7 0 -11 3 -16 7 -13 3 4 11 3 17 -2 20 -15 74 -21
80 -8 3 9 5 9 5 0 1 -7 7 -10 15 -7 8 3 17 1 21 -5 3 -6 12 -11 18 -11 8 0 8
3 -1 9 -11 7 -11 17 -2 52 28 102 55 142 165 234 67 57 108 100 115 120 18 52
40 207 39 275 -2 61 -2 59 -10 -30 -14 -160 -13 -158 -59 -156 -32 2 -37 0
-29 -11 7 -7 9 -13 5 -13 -4 0 1 -11 10 -25 9 -14 21 -22 26 -19 6 4 9 1 6 -6
-5 -17 -38 -22 -38 -7 0 7 -4 6 -9 -3 -6 -8 -8 -17 -5 -21 2 -4 0 -10 -6 -14
-5 -3 -10 -1 -10 6 0 7 -6 4 -14 -6 -8 -11 -12 -24 -8 -30 3 -5 -2 -4 -12 4
-15 13 -18 12 -23 -7 -3 -12 -9 -19 -14 -16 -5 3 -10 0 -10 -5 -1 -6 -2 -15
-3 -20 0 -5 -5 -13 -10 -18 -5 -4 -6 -3 -3 3 4 7 0 15 -9 18 -12 4 -15 2 -10
-9 5 -13 2 -14 -15 -4 -12 6 -19 7 -16 2 3 -4 -1 -21 -9 -38 -8 -16 -11 -20
-8 -8 6 25 -13 40 -29 24 -15 -15 -30 -14 -21 2 4 6 3 9 -1 4 -14 -12 -13 -46
2 -58 7 -6 13 -17 13 -23 0 -6 -5 -3 -11 7 -6 9 -15 14 -21 11 -7 -4 -8 -2 -4
4 4 7 2 12 -5 12 -6 0 -9 8 -7 18 3 11 0 19 -7 19 -9 0 -10 -8 -4 -29 5 -17 4
-26 -2 -23 -5 4 -9 14 -9 23 0 14 -2 15 -10 2 -11 -18 15 -51 35 -44 7 3 15 2
18 -3 7 -11 -43 -10 -61 0 -7 5 -10 12 -7 17 3 5 -8 18 -25 30 l-31 22 6 -34
c4 -24 3 -29 -5 -18 -9 14 -14 7 -11 -13 1 -5 -3 -5 -9 -2 -6 4 -9 9 -6 12 3
3 1 13 -4 22 -5 10 -5 23 1 32 8 12 10 12 8 -1 -3 -27 1 -41 9 -36 13 8 7 47
-9 57 -11 7 -11 9 -1 9 7 0 10 5 7 10 -7 12 3 50 14 50 4 0 8 -10 8 -22 2 -18
0 -20 -7 -8 -8 13 -10 12 -10 -4 0 -13 5 -16 18 -12 14 5 13 3 -3 -10 -15 -13
-16 -15 -3 -11 12 4 15 2 12 -7 -6 -17 12 -30 27 -21 7 5 4 14 -7 26 -9 10
-14 19 -10 19 4 0 2 8 -3 19 -8 14 -6 22 7 33 28 24 136 75 150 71 6 -3 12 -2
12 0 0 3 -14 10 -30 16 -28 9 -32 8 -42 -15 -9 -19 -17 -24 -32 -20 -14 4 -27
-2 -39 -17 -13 -15 -17 -17 -13 -5 3 12 1 15 -9 11 -8 -3 -12 -9 -9 -14 3 -5
1 -9 -5 -9 -5 0 -11 4 -13 10 -1 5 -31 12 -65 15 -34 2 -83 10 -109 16 -44 11
-48 11 -66 -10 -28 -36 -49 -119 -49 -203 0 -43 -3 -78 -7 -78 -4 0 -47 7 -97
15 -49 9 -187 20 -305 25 -118 6 -228 13 -245 16 -16 3 -39 7 -50 9 -75 12
-138 30 -242 69 -65 24 -154 58 -198 75 -44 16 -92 32 -106 35 -15 3 -35 14
-46 23 -10 10 -13 14 -6 9 16 -10 16 -7 3 30 -12 36 -20 99 -21 184 -1 57 -4
68 -28 90 -24 22 -37 25 -111 28 -77 3 -111 -2 -162 -23 -14 -6 -18 -2 -19 16
-1 21 -2 21 -10 -6 -12 -38 -17 -79 -24 -185 -2 -47 -10 -106 -16 -132 l-12
-48 -73 0 c-103 0 -120 8 -138 71 -46 153 9 356 125 464 26 25 52 45 57 45 5
0 15 -14 22 -30 7 -17 15 -28 17 -26 3 3 -14 40 -37 83 -51 95 -76 157 -100
248 -11 39 -19 58 -19 43 -1 -14 11 -59 25 -100 38 -110 38 -106 17 -110 -15
-4 -13 -6 8 -12 16 -5 34 -22 47 -46 l20 -39 -47 6 -47 5 -52 -58 c-85 -97
-141 -239 -142 -359 0 -38 17 -117 35 -158 6 -16 2 -17 -46 -16 -35 2 -59 8
-67 18 -8 9 -11 10 -7 4 3 -7 3 -13 -2 -13 -4 -1 -24 -3 -44 -6 -35 -5 -36 -4
-66 53 -17 32 -36 82 -42 112 l-12 54 59 76 c32 42 67 92 76 111 l17 35 -19
-24 c-18 -23 -22 -23 -67 -12 -182 46 -268 197 -282 498 l-6 132 28 7 c16 4
67 2 114 -4 161 -22 268 -100 337 -246 l35 -74 -50 -101 c-28 -56 -49 -101
-46 -101 2 0 16 22 29 49 24 47 27 49 80 55 29 4 67 11 82 17 28 8 27 9 -6 4
-19 -2 -54 -7 -78 -11 l-43 -7 16 39 c9 21 20 41 25 44 5 3 16 25 25 49 18 51
18 54 6 46 -5 -3 -24 21 -41 54 -83 155 -229 239 -424 245 l-88 3 -67 -79z
m-347 -775 c48 -19 131 -45 184 -58 52 -14 97 -27 99 -29 10 -10 -19 -74 -47
-107 -58 -67 -94 -97 -111 -94 -10 2 -21 0 -24 -6 -4 -6 -13 -5 -24 1 -12 6
-22 5 -31 -3 -8 -8 -11 -8 -7 -1 4 7 0 17 -8 24 -8 7 -15 9 -15 5 0 -4 -6 -2
-13 4 -8 6 -17 8 -20 4 -4 -3 -7 5 -7 18 1 21 2 22 11 6 6 -9 15 -14 21 -11 7
5 8 2 3 -6 -5 -9 -4 -11 4 -6 6 4 9 12 6 17 -4 5 -1 9 5 9 7 0 9 -7 6 -16 -4
-10 -2 -13 6 -8 7 5 8 3 3 -6 -5 -8 -4 -11 3 -6 6 4 9 13 5 22 -3 9 0 14 7 12
7 -2 15 4 17 12 4 13 3 13 -6 0 -10 -13 -11 -13 -12 0 0 10 -2 11 -6 3 -3 -10
-11 -9 -34 3 -19 9 -27 19 -22 27 5 9 3 9 -9 0 -8 -7 -18 -9 -22 -5 -4 4 -7 2
-6 -3 5 -22 -1 -27 -15 -15 -13 11 -14 10 -9 -4 4 -10 13 -15 20 -12 8 3 14
-1 14 -9 0 -18 -14 -19 -32 -2 -7 6 -22 14 -33 15 -30 6 -68 27 -93 54 l-22
25 45 97 c38 80 49 96 63 90 9 -4 57 -22 106 -41z m1466 40 c-8 -4 -21 -13
-28 -22 -11 -14 -11 -13 -2 7 6 12 18 22 28 21 14 0 14 -2 2 -6z m69 -47 c0
-6 -5 -1 -11 12 -12 23 -34 31 -25 9 3 -8 1 -20 -4 -28 -7 -11 -9 -9 -9 8 0
12 3 29 7 39 6 15 8 15 25 -6 10 -12 18 -27 17 -34z m-62 12 c-3 -8 -6 -5 -6
6 -1 11 2 17 5 13 3 -3 4 -12 1 -19z m-14 -39 c-12 -4 -28 -18 -37 -31 -9 -12
-16 -18 -16 -13 0 16 53 65 63 58 6 -3 1 -10 -10 -14z m2170 -115 c-7 -3 -10
-11 -7 -18 3 -7 -2 -13 -11 -13 -9 0 -14 6 -11 14 3 8 2 11 -3 8 -5 -3 -12 -1
-16 5 -4 6 7 10 27 9 18 0 28 -3 21 -5z m-3808 -69 c27 -24 46 -48 42 -51 -4
-4 -2 -13 4 -20 7 -8 7 -14 -1 -19 -6 -4 -9 -3 -8 2 2 4 -1 8 -7 8 -5 0 -9 -4
-7 -10 2 -5 -6 -1 -17 9 -11 10 -18 22 -16 26 3 4 -2 13 -9 20 -8 6 -13 20
-11 31 2 11 0 17 -6 14 -5 -4 -9 -1 -9 6 0 7 -3 9 -6 6 -6 -6 -13 -38 -16 -74
-1 -7 -3 -11 -6 -8 -3 2 -14 0 -26 -6 -18 -9 -19 -8 -6 3 8 7 15 18 15 23 1 9
36 85 40 85 1 0 23 -20 50 -45z m-205 10 c13 -14 20 -25 15 -25 -4 0 -18 11
-31 25 -13 14 -20 25 -15 25 4 0 18 -11 31 -25z m393 -28 c-3 -5 -10 -2 -15 7
-5 9 -14 13 -20 10 -7 -4 -8 -2 -4 4 5 9 12 9 26 0 10 -7 16 -16 13 -21z
m2982 23 c4 -6 11 -7 17 -4 7 4 8 2 4 -5 -5 -8 0 -10 17 -7 16 3 24 -1 24 -10
0 -8 -5 -10 -11 -6 -21 14 -51 7 -62 -16 -17 -34 -19 -33 -19 4 0 19 3 34 8
34 4 0 5 5 2 10 -3 6 -2 10 4 10 5 0 13 -5 16 -10z m-3210 -10 c3 -5 1 -10 -4
-10 -6 0 -11 5 -11 10 0 6 2 10 4 10 3 0 8 -4 11 -10z m3818 -12 c-9 -10 -22
-18 -30 -18 -8 0 -12 -4 -9 -8 3 -5 -1 -9 -8 -9 -7 0 -13 6 -13 13 0 7 4 11 8
8 4 -2 10 0 14 6 4 6 12 7 18 3 9 -5 9 -3 0 8 -10 13 -8 15 12 15 23 0 23 -1
8 -18z m-511 -2 c7 4 8 2 4 -5 -9 -13 -26 -5 -25 12 0 9 2 8 6 -1 2 -6 10 -9
15 -6z m79 4 c6 0 7 -6 2 -12 -4 -7 -8 -17 -8 -23 -1 -5 -6 -9 -11 -8 -6 1
-11 -12 -11 -29 0 -18 -5 -34 -11 -36 -7 -2 -9 -8 -6 -14 3 -5 -5 -4 -17 4
-13 7 -25 14 -27 14 -2 1 5 19 14 40 9 22 18 41 18 44 4 18 20 31 33 26 8 -3
19 -6 24 -6z m-3507 -34 c9 -37 -34 -120 -52 -101 -4 4 -1 10 6 12 6 3 12 14
12 24 0 11 -4 18 -9 14 -5 -3 -12 -1 -15 4 -9 14 26 23 36 9 6 -8 7 1 3 25 -7
41 9 52 19 13z m125 11 c8 -10 7 -14 -2 -14 -8 0 -14 6 -14 14 0 7 1 13 2 13
2 0 8 -6 14 -13z m3272 -28 c7 -12 9 -12 9 0 0 8 3 11 6 8 4 -4 2 -13 -4 -20
-7 -8 -9 -16 -6 -20 5 -5 -21 -2 -36 3 -3 1 -8 2 -12 1 -4 0 -4 7 -1 17 6 15
5 15 -10 3 -11 -9 -17 -10 -17 -2 0 6 5 11 11 11 5 0 8 4 5 9 -4 5 6 8 20 6
14 -1 30 -9 35 -16z m-1341 5 c0 -8 -19 -13 -24 -6 -3 5 1 9 9 9 8 0 15 -2 15
-3z m-1743 -64 c-12 -9 -33 -23 -45 -29 -13 -7 -21 -15 -18 -18 3 -3 28 9 56
27 28 18 53 30 56 28 3 -3 -17 -20 -44 -37 -39 -25 -55 -30 -81 -25 l-33 7 34
21 c18 11 41 28 52 38 10 9 24 14 32 11 11 -4 8 -9 -9 -23z m-260 -2 c-3 -8
-6 -5 -6 6 -1 11 2 17 5 13 3 -3 4 -12 1 -19z m335 -5 c-6 -2 -9 -10 -6 -15 4
-7 2 -8 -5 -4 -13 9 -5 26 12 25 9 0 8 -2 -1 -6z m1739 -9 c42 -14 52 -14 67
-3 15 13 16 12 4 -3 -10 -13 -10 -17 0 -21 7 -3 -8 -6 -34 -6 -26 -1 -50 4
-53 9 -4 6 -10 8 -15 5 -4 -3 -11 2 -14 11 -3 8 -11 12 -17 8 -8 -4 -9 -3 -5
4 9 15 8 15 67 -4z m1589 9 c0 -5 -5 -15 -10 -23 -9 -13 -10 -13 -10 0 0 13
-1 13 -10 0 -5 -8 -10 -10 -10 -4 0 12 20 34 32 34 4 0 8 -3 8 -7z m-144 -51
c-3 -3 0 -12 6 -21 10 -13 10 -14 -2 -4 -16 15 -23 46 -8 37 5 -3 7 -9 4 -12z
m-1365 -29 c13 -16 12 -17 -3 -4 -17 13 -22 21 -14 21 2 0 10 -8 17 -17z m550
-50 c13 -16 12 -17 -3 -4 -10 7 -18 15 -18 17 0 8 8 3 21 -13z m39 11 c0 -8
-19 -13 -24 -6 -3 5 1 9 9 9 8 0 15 -2 15 -3z m50 2 c0 -2 -7 -7 -16 -10 -8
-3 -12 -2 -9 4 6 10 25 14 25 6z m37 -2 c-3 -3 -12 -4 -19 -1 -8 3 -5 6 6 6
11 1 17 -2 13 -5z"/>
<path d="M3113 815 c0 -8 4 -12 8 -9 4 2 10 -2 12 -8 4 -8 6 -9 6 -2 1 6 -5
17 -12 23 -10 8 -14 7 -14 -4z"/>
<path d="M3156 802 c-2 -4 -1 -14 3 -21 6 -10 10 -9 14 3 6 16 -8 32 -17 18z"/>
<path d="M3192 805 c4 -4 3 -14 -3 -21 -7 -9 -6 -14 3 -20 7 -4 10 -4 6 1 -4
4 -3 14 3 21 7 9 6 14 -3 20 -7 4 -10 4 -6 -1z"/>
<path d="M3466 768 c3 -5 10 -6 15 -3 13 9 11 12 -6 12 -8 0 -12 -4 -9 -9z"/>
<path d="M3450 741 c0 -7 -5 -9 -12 -5 -7 5 -8 3 -3 -5 5 -9 10 -10 18 -2 6 6
8 14 4 18 -4 3 -7 1 -7 -6z"/>
<path d="M3380 731 c0 -7 -4 -10 -8 -7 -5 3 -9 -2 -9 -10 0 -13 2 -13 16 0 8
9 12 19 8 22 -4 4 -7 2 -7 -5z"/>
<path d="M3087 753 c-10 -9 13 -33 32 -34 12 0 12 -2 -3 -8 -12 -5 -15 -10 -9
-14 6 -4 16 0 23 8 10 11 9 18 -4 30 -9 10 -16 12 -16 5 0 -6 -5 -8 -10 -5 -6
4 -8 11 -5 16 7 10 1 12 -8 2z"/>
<path d="M6256 744 c-5 -14 -4 -15 9 -4 17 14 19 20 6 20 -5 0 -12 -7 -15 -16z"/>
<path d="M6404 739 c-4 -8 -3 -9 4 -5 7 4 12 3 12 -3 0 -5 -8 -14 -17 -20 -10
-5 -14 -13 -10 -18 5 -4 13 0 18 10 6 9 14 15 19 12 4 -3 7 3 6 12 -3 21 -22
28 -32 12z"/>
<path d="M6310 690 c6 -11 15 -18 21 -14 6 4 6 11 -2 20 -17 21 -31 17 -19 -6z"/>
<path d="M4754 1745 c0 -55 1 -76 3 -47 2 29 2 74 0 100 -2 26 -3 2 -3 -53z"/>
<path d="M3561 1806 c-13 -14 -36 -30 -52 -37 -16 -6 -28 -14 -25 -16 7 -8 60
24 85 51 14 14 22 26 19 26 -2 0 -15 -11 -27 -24z"/>
<path d="M3132 1751 c-14 -46 -15 -61 -3 -42 8 12 14 12 40 1 29 -12 64 -10
117 5 19 6 21 3 17 -19 -3 -15 -1 -26 6 -26 5 0 8 6 5 14 -3 8 0 24 6 37 11
19 10 21 -6 17 -107 -31 -111 -32 -143 -18 -28 11 -31 16 -26 41 9 42 0 35
-13 -10z"/>
<path d="M5355 1635 c-16 -17 -43 -41 -60 -54 l-30 -22 33 18 c33 18 99 80 91
86 -2 1 -17 -11 -34 -28z"/>
<path d="M2876 1645 c-9 -26 -7 -32 5 -12 6 10 9 21 6 23 -2 3 -7 -2 -11 -11z"/>
<path d="M1828 1643 c6 -2 18 -2 25 0 6 3 1 5 -13 5 -14 0 -19 -2 -12 -5z"/>
<path d="M3310 1609 c0 -3 11 -20 25 -39 14 -19 25 -30 25 -24 -1 10 -50 73
-50 63z"/>
<path d="M4761 1574 c0 -11 3 -14 6 -6 3 7 2 16 -1 19 -3 4 -6 -2 -5 -13z"/>
<path d="M3061 1534 c0 -11 3 -14 6 -6 3 7 2 16 -1 19 -3 4 -6 -2 -5 -13z"/>
<path d="M4767 1435 c5 -118 13 -169 13 -87 0 27 5 42 13 42 9 0 9 2 -1 8 -7
5 -16 42 -21 83 -8 63 -8 56 -4 -46z"/>
<path d="M2792 1395 c0 -16 2 -22 5 -12 2 9 2 23 0 30 -3 6 -5 -1 -5 -18z"/>
<path d="M4358 1383 c7 -3 16 -2 19 1 4 3 -2 6 -13 5 -11 0 -14 -3 -6 -6z"/>
<path d="M3462 1355 c0 -16 2 -22 5 -12 2 9 2 23 0 30 -3 6 -5 -1 -5 -18z"/>
<path d="M1249 1343 c-13 -16 -12 -17 4 -4 9 7 17 15 17 17 0 8 -8 3 -21 -13z"/>
<path d="M1497 1338 c2 -5 10 -8 18 -8 8 0 16 3 18 8 3 4 -5 7 -18 7 -13 0
-21 -3 -18 -7z"/>
<path d="M1336 1318 c3 -5 10 -6 15 -3 13 9 11 12 -6 12 -8 0 -12 -4 -9 -9z"/>
<path d="M1215 1311 c-3 -5 -2 -12 3 -15 5 -3 9 1 9 9 0 17 -3 19 -12 6z"/>
<path d="M1435 1300 c3 -4 16 -10 30 -12 13 -3 22 -2 20 2 -3 4 -16 10 -30 12
-13 3 -22 2 -20 -2z"/>
<path d="M4782 1275 c0 -16 2 -22 5 -12 2 9 2 23 0 30 -3 6 -5 -1 -5 -18z"/>
<path d="M3517 1225 c3 -38 6 -75 6 -82 0 -7 4 -10 8 -8 8 6 3 66 -10 121 -8
32 -9 26 -4 -31z"/>
<path d="M253 1245 c0 -8 4 -12 9 -9 5 3 6 10 3 15 -9 13 -12 11 -12 -6z"/>
<path d="M4792 1215 c0 -16 2 -22 5 -12 2 9 2 23 0 30 -3 6 -5 -1 -5 -18z"/>
<path d="M275 1213 c2 -10 4 -20 5 -23 1 -3 2 -9 1 -13 -1 -5 4 -5 10 -1 9 5
10 2 6 -12 -7 -18 -6 -18 9 1 16 19 16 19 10 -6 -3 -14 -2 -29 2 -33 4 -4 8
-12 8 -17 1 -5 3 -11 4 -14 3 -7 7 -23 9 -36 0 -6 7 -9 14 -6 10 4 13 -2 9
-19 -2 -14 0 -24 7 -24 6 0 11 -8 11 -19 0 -10 7 -24 15 -31 8 -7 12 -16 10
-21 -3 -4 4 -6 15 -4 15 3 20 -1 20 -16 0 -13 -4 -18 -12 -13 -10 6 -10 4 0
-7 15 -17 16 -37 0 -21 -9 9 -15 7 -25 -6 -13 -15 -13 -15 -8 8 5 19 4 22 -4
10 -7 -10 -11 -11 -11 -2 0 6 -5 12 -11 12 -6 0 -4 -9 5 -22 11 -15 12 -25 5
-34 -7 -8 -6 -15 2 -20 7 -4 9 -3 6 3 -9 14 31 49 43 37 6 -6 6 -15 0 -24 -9
-13 -10 -13 -10 0 0 11 -3 11 -11 -3 -8 -14 -8 -22 0 -30 15 -15 14 -30 -1
-20 -7 4 -19 8 -26 9 -10 2 -10 -1 -2 -11 7 -8 10 -20 7 -27 -3 -8 -6 -6 -6 5
-1 10 -5 16 -10 12 -6 -3 -8 6 -5 21 4 20 1 25 -9 21 -10 -4 -14 2 -13 16 2
24 -30 84 -40 79 -4 -2 -11 2 -16 10 -6 9 -7 5 -3 -12 9 -33 25 -50 19 -19
l-5 24 15 -25 c8 -14 15 -29 15 -35 1 -5 -3 -4 -8 3 -4 8 -11 13 -15 13 -20
-3 -26 1 -26 17 0 13 -2 14 -9 4 -7 -11 -9 -10 -15 3 -3 9 -11 13 -17 9 -7 -4
-9 -3 -5 4 3 6 2 14 -4 17 -8 5 -8 11 -1 19 8 9 7 13 -3 13 -9 0 -13 -9 -11
-24 1 -13 -1 -25 -4 -28 -4 -2 -8 11 -9 28 -2 17 -8 36 -14 42 -8 7 -9 6 -4
-5 4 -8 -2 -4 -14 10 -12 14 -25 24 -29 23 -3 -1 -28 17 -55 40 -46 38 -84 58
-70 36 3 -5 11 -6 17 -3 7 4 8 3 4 -2 -5 -5 -14 -9 -20 -9 -9 0 -13 -46 -14
-161 l-2 -160 62 -41 c69 -46 201 -114 260 -133 32 -10 38 -16 35 -35 -5 -21
-1 -22 87 -28 93 -6 210 -41 199 -59 -3 -5 -12 -7 -20 -4 -8 3 -11 0 -7 -10 5
-13 8 -13 23 1 16 14 25 14 105 -10 118 -34 258 -42 348 -21 67 16 144 50 182
80 11 9 -11 0 -50 -19 -86 -43 -179 -65 -197 -46 -11 10 -10 11 2 7 8 -3 26 3
40 14 l25 20 -25 -8 c-14 -5 -34 -6 -45 -2 -11 4 -31 4 -45 1 -37 -10 -150 -2
-150 11 0 3 -12 5 -26 2 -17 -3 -23 -1 -19 7 5 7 20 8 44 4 72 -14 104 -11
128 13 13 13 28 20 33 17 6 -3 10 -1 10 4 0 6 -11 10 -25 9 -14 -1 -25 -6 -25
-11 0 -4 -5 -5 -12 -1 -6 4 -8 3 -5 -3 4 -6 0 -13 -8 -16 -9 -4 -12 -1 -8 9 6
15 -32 21 -41 6 -4 -7 -81 -9 -81 -2 0 1 -9 4 -20 6 -11 1 -31 5 -45 8 -83 19
-93 19 -87 2 4 -10 3 -15 -3 -11 -6 3 -10 13 -10 21 0 10 -12 14 -41 14 -28 0
-38 -4 -33 -12 4 -7 3 -8 -4 -4 -17 10 -15 16 11 26 18 7 14 8 -18 6 -22 -1
-39 -6 -38 -12 1 -6 -3 -11 -10 -11 -7 0 -21 -4 -32 -7 -14 -5 -13 -3 5 9 23
15 23 16 3 12 -16 -4 -20 -1 -16 11 4 10 2 13 -5 8 -6 -3 -13 -2 -17 3 -3 6
-12 8 -20 5 -8 -4 -12 -11 -9 -16 4 -6 10 -5 16 3 8 12 9 12 6 0 -2 -8 -14
-15 -25 -16 -20 -1 -21 0 -8 24 18 36 90 116 128 143 17 12 51 28 76 34 40 11
42 13 16 13 -17 1 -46 -3 -65 -9 -34 -9 -34 -9 -14 8 11 10 19 23 16 30 -2 8
3 33 12 57 15 39 56 82 156 165 22 18 22 20 3 11 -12 -6 -25 -16 -28 -21 -4
-6 -10 -8 -15 -5 -4 3 -11 -2 -14 -11 -3 -8 -11 -12 -16 -9 -6 4 -9 3 -8 -2 3
-8 -7 -14 -17 -12 -3 1 -15 2 -27 3 -13 0 -23 6 -23 13 0 6 -4 15 -8 20 -5 4
-7 3 -5 -4 2 -6 -1 -11 -7 -11 -5 0 -9 5 -7 11 2 6 -4 5 -12 -3 -10 -7 -16 -8
-16 -2 0 6 5 14 10 17 16 10 -7 34 -27 31 -9 -2 -19 -9 -21 -17 -2 -9 0 -10 5
-4 9 12 33 14 33 3 0 -4 -3 -15 -7 -24 -5 -13 -7 -13 -14 -2 -7 10 -9 10 -9
-2 0 -13 -1 -13 -10 0 -8 13 -10 13 -10 1 0 -11 -3 -11 -13 3 -12 16 -13 16
-13 -3 0 -11 3 -18 6 -16 4 2 7 -2 7 -10 0 -12 -3 -12 -16 -2 -12 10 -13 9 -6
-3 7 -12 6 -13 -7 -3 -8 7 -18 10 -21 7 -4 -4 -2 7 3 25 5 17 6 31 3 31 -3 0
0 7 7 15 11 14 15 14 34 -2 15 -13 17 -14 8 -2 -6 9 -9 18 -6 22 3 3 0 16 -7
29 -7 12 -12 27 -11 32 2 5 -4 4 -12 -3 -12 -10 -16 -9 -25 6 -6 10 -11 13
-11 7 0 -16 -30 -13 -30 3 0 8 4 12 9 9 5 -3 15 2 22 11 8 9 9 14 2 10 -6 -4
-13 -2 -15 5 -2 6 -12 -5 -22 -25 -17 -36 -31 -52 -20 -22 4 8 1 15 -5 15 -6
0 -11 5 -11 11 0 5 4 8 9 4 6 -3 15 3 20 14 8 15 7 22 -7 32 -15 12 -15 12 -5
-1 7 -9 8 -21 4 -29 -8 -12 -18 7 -25 44 -1 6 -7 9 -14 8 -7 -2 -12 2 -12 7 0
6 -4 10 -9 10 -5 0 -8 -8 -6 -17z m32 -20 c0 -9 -4 -10 -14 -2 -7 6 -13 12
-13 14 0 1 6 2 13 2 8 0 14 -6 14 -14z m95 -103 c-3 -11 0 -11 12 -1 12 10 17
9 25 -8 12 -22 15 -38 4 -28 -3 4 -15 0 -25 -10 -23 -21 -24 -6 0 21 14 17 14
19 0 8 -17 -13 -35 -1 -24 16 3 5 -1 9 -9 9 -13 0 -13 -3 -1 -22 13 -20 13
-25 0 -41 -12 -17 -13 -17 -8 -1 7 19 -13 50 -26 42 -6 -4 -7 24 -1 31 1 0 13
0 29 -1 17 -1 26 -7 24 -15z m146 -120 c1 -1 7 -4 12 -5 6 -1 13 -4 18 -5 4
-1 10 -2 13 -2 14 2 5 -35 -16 -63 -23 -31 -41 -74 -37 -88 4 -14 -35 -62 -72
-90 l-34 -26 11 23 c7 14 15 22 20 19 5 -3 11 5 14 17 4 16 8 18 14 8 6 -9 9
-9 9 -1 0 23 -20 24 -30 1 -10 -22 -10 -22 -7 4 3 18 -2 33 -14 44 -12 11 -16
22 -10 33 4 9 8 37 7 63 -1 25 3 46 9 45 5 -1 10 4 11 11 1 6 2 13 3 15 1 4
74 1 79 -3z m-523 -109 c3 -5 2 -12 -3 -15 -5 -3 -9 1 -9 9 0 17 3 19 12 6z
m424 -104 c-5 -17 -13 -35 -19 -41 -8 -8 -9 -6 -5 6 5 13 2 16 -12 14 -14 -3
-18 2 -18 24 0 33 15 30 16 -3 1 -18 2 -16 10 8 5 18 5 33 -1 39 -22 22 -8 28
14 7 20 -19 23 -27 15 -54z m-372 36 c-4 -3 -1 -13 6 -22 11 -14 10 -14 -5 -2
-16 12 -16 31 -1 31 4 0 3 -3 0 -7z m34 -36 c-10 -9 -11 -8 -5 6 3 10 9 15 12
12 3 -3 0 -11 -7 -18z m15 -15 c-15 -15 -15 -15 -4 10 7 15 15 23 17 17 2 -6
-4 -18 -13 -27z m36 -22 c-5 -13 -3 -13 11 -1 9 7 17 10 17 6 0 -4 7 -2 15 5
12 10 15 9 15 -5 0 -11 5 -15 14 -12 12 5 14 -3 11 -38 -2 -25 0 -47 4 -50 5
-2 8 3 8 13 0 53 3 67 13 52 5 -9 5 -19 0 -25 -6 -7 -5 -16 3 -25 9 -10 9 -11
0 -6 -9 5 -11 2 -6 -9 4 -12 8 -13 13 -5 5 8 9 7 14 -5 3 -9 10 -14 15 -11 5
4 12 0 15 -6 3 -7 3 -2 0 11 -4 16 -3 21 5 17 15 -10 14 -49 -1 -43 -91 36
-98 40 -99 61 0 20 -1 20 -9 1 l-9 -20 0 20 c-1 17 -3 17 -11 5 -7 -11 -10
-11 -10 -2 0 7 -5 10 -12 6 -7 -4 -8 -3 -4 5 4 6 10 23 12 38 4 22 3 24 -10
14 -8 -7 -13 -18 -10 -26 3 -7 1 -16 -5 -20 -7 -4 -8 1 -4 12 6 16 5 17 -12 3
-17 -13 -18 -13 -10 0 13 21 17 52 6 46 -5 -3 -4 5 2 19 10 20 13 22 18 7 3
-9 4 -24 1 -32z m-99 17 c4 3 7 4 7 0 0 -17 -20 -14 -36 6 -19 22 -19 22 2 4
11 -9 24 -14 27 -10z m452 -15 c-6 -4 -27 -23 -48 -42 -21 -19 -35 -28 -32
-20 6 14 72 70 84 70 3 0 1 -3 -4 -8z m-402 -17 c-3 -9 -8 -14 -10 -11 -3 3
-2 9 2 15 9 16 15 13 8 -4z m191 -46 c-4 -8 -3 -9 4 -5 7 4 12 15 12 24 0 11
8 18 20 19 22 2 25 -5 9 -27 -9 -12 -10 -11 -4 5 5 16 4 17 -6 8 -10 -10 -9
-16 4 -31 9 -10 14 -23 10 -27 -5 -5 -1 -4 7 2 11 9 19 8 33 -2 18 -13 18 -14
0 -24 -10 -6 -13 -11 -8 -11 11 0 -15 -20 -27 -20 -5 0 -8 11 -8 24 0 31 -27
55 -36 32 -5 -13 -9 -12 -24 7 -10 12 -15 26 -10 31 5 5 6 16 2 25 -5 14 -4
14 12 -1 9 -10 14 -23 10 -29z m99 4 c-3 -7 -9 -11 -13 -8 -5 3 -11 1 -15 -5
-9 -14 -25 -3 -19 13 2 7 15 13 28 13 15 0 22 -5 19 -13z m11 -31 c-9 -2 -21
2 -28 9 -8 9 -8 10 1 5 6 -3 15 -1 19 5 4 8 9 7 15 -2 6 -9 3 -15 -7 -17z
m196 -106 c0 -9 -30 -14 -35 -6 -4 6 3 10 14 10 12 0 21 -2 21 -4z m85 -42
c-1 -10 4 -22 10 -26 7 -5 6 -8 -1 -8 -6 0 -17 7 -24 15 -7 8 -17 12 -24 8 -7
-4 -6 -1 1 9 7 8 10 17 7 21 -3 3 2 4 13 3 10 -2 18 -11 18 -22z m48 10 c4 -1
17 -2 28 -3 18 -1 19 -3 9 -16 -9 -11 -10 -19 -1 -28 8 -10 7 -14 -4 -14 -8 0
-12 3 -10 6 2 4 -2 17 -9 30 -9 15 -16 20 -20 12 -4 -6 -3 -11 2 -11 5 0 9 -7
9 -15 0 -22 -22 2 -32 34 -6 18 -4 22 6 15 8 -5 17 -9 22 -10z m151 -3 c3 -5
-1 -11 -9 -14 -9 -4 -12 -1 -8 9 6 16 10 17 17 5z m-52 -53 c9 2 18 -1 21 -5
3 -4 -8 -9 -23 -10 -17 -1 -30 4 -34 13 -4 10 -2 13 7 7 6 -4 19 -6 29 -5z
m83 -8 c4 -6 15 -6 32 1 14 5 28 8 30 5 2 -2 -12 -9 -31 -16 -39 -13 -89 -4
-65 11 18 11 26 11 34 -1z"/>
<path d="M472 961 c1 -3 -2 -14 -6 -23 -4 -9 -6 -25 -3 -35 3 -12 6 -7 7 12
l2 30 8 -30 8 -30 2 30 3 30 6 -34 c4 -25 12 -35 29 -37 19 -3 22 1 23 34 1
37 1 37 9 7 l8 -30 1 30 c1 23 3 27 11 15 5 -8 10 -10 10 -4 0 11 -30 41 -37
37 -1 -2 -4 -3 -5 -2 -11 4 -77 4 -76 0z m68 -14 c0 -4 -1 -22 -1 -39 l-2 -33
-7 35 -7 35 -3 -35 -3 -35 -6 35 c-4 21 -12 34 -20 32 -7 -1 -10 1 -7 6 6 10
56 10 56 -1z"/>
<path d="M461 873 c1 -4 0 -10 -1 -13 -9 -24 -5 -41 13 -57 19 -16 20 -16 8 0
-7 9 -10 17 -6 17 4 0 2 6 -4 13 -11 14 -5 27 11 27 5 0 7 -4 3 -9 -10 -17 12
-21 26 -5 7 8 8 14 3 12 -5 -1 -19 3 -32 10 -12 7 -22 9 -21 5z"/>
<path d="M516 807 c3 -10 9 -15 12 -12 3 3 0 11 -7 18 -10 9 -11 8 -5 -6z"/>
<path d="M432 760 c0 -14 2 -19 5 -12 2 6 2 18 0 25 -3 6 -5 1 -5 -13z"/>
<path d="M199 713 c0 -4 -2 -19 -4 -33 -2 -14 -1 -19 2 -11 5 11 7 11 15 0 8
-11 9 -10 4 4 -3 9 -1 17 4 17 6 0 10 -8 11 -17 0 -12 2 -14 6 -5 3 8 -4 22
-16 33 -12 11 -21 16 -22 12z"/>
<path d="M286 661 c-3 -5 1 -14 8 -20 10 -9 16 -9 21 -1 5 8 12 7 23 -2 15
-12 16 -11 3 5 -10 13 -17 15 -27 6 -13 -11 -18 -6 -15 14 1 10 -7 9 -13 -2z"/>
<path d="M365 609 c-4 -6 -5 -12 -2 -15 2 -3 7 2 10 11 7 17 1 20 -8 4z"/>
<path d="M675 491 c-3 -5 -2 -12 3 -15 5 -3 9 1 9 9 0 17 -3 19 -12 6z"/>
<path d="M986 1211 c-3 -4 6 -7 19 -7 14 0 22 2 19 5 -8 8 -34 10 -38 2z"/>
<path d="M4080 1200 c-6 -11 -8 -20 -6 -20 3 0 10 9 16 20 6 11 8 20 6 20 -3
0 -10 -9 -16 -20z"/>
<path d="M1043 1185 c0 -8 4 -12 9 -9 5 3 6 10 3 15 -9 13 -12 11 -12 -6z"/>
<path d="M1670 1169 c-36 -11 -73 -21 -82 -22 -9 -1 -15 -4 -12 -8 2 -4 -9
-12 -25 -19 -30 -12 -50 -40 -28 -40 7 0 31 5 55 10 23 6 60 11 82 12 22 1 40
5 40 9 0 4 10 11 23 15 21 7 21 7 2 14 -18 6 -17 7 6 13 14 4 26 13 26 22 0
19 -7 18 -87 -6z"/>
<path d="M1928 1163 c7 -3 16 -2 19 1 4 3 -2 6 -13 5 -11 0 -14 -3 -6 -6z"/>
<path d="M4802 1145 c0 -16 2 -22 5 -12 2 9 2 23 0 30 -3 6 -5 -1 -5 -18z"/>
<path d="M4531 1134 c0 -11 3 -14 6 -6 3 7 2 16 -1 19 -3 4 -6 -2 -5 -13z"/>
<path d="M1137 1121 c-4 -17 -3 -21 5 -13 5 5 8 16 6 23 -3 8 -7 3 -11 -10z"/>
<path d="M6808 1103 c-8 -10 -18 -25 -22 -33 -4 -8 0 -6 8 5 9 11 24 26 33 33
9 6 12 12 6 12 -5 0 -17 -8 -25 -17z"/>
<path d="M6908 1113 c7 -3 16 -2 19 1 4 3 -2 6 -13 5 -11 0 -14 -3 -6 -6z"/>
<path d="M462 1094 c10 -10 20 -16 22 -13 3 3 -5 11 -17 18 -21 13 -21 12 -5
-5z"/>
<path d="M1251 1094 c0 -11 3 -14 6 -6 3 7 2 16 -1 19 -3 4 -6 -2 -5 -13z"/>
<path d="M515 1071 c-3 -6 -14 -8 -24 -6 -10 2 -18 -3 -18 -11 0 -9 4 -11 12
-4 7 5 14 8 17 5 3 -3 11 1 18 10 7 8 10 15 7 15 -3 0 -8 -4 -12 -9z"/>
<path d="M1470 1069 c14 -6 46 -22 71 -35 26 -13 52 -24 59 -24 17 0 -97 56
-130 64 l-25 6 25 -11z"/>
<path d="M2030 1070 c-9 -6 -10 -10 -3 -10 6 0 15 5 18 10 8 12 4 12 -15 0z"/>
<path d="M2281 1041 c34 -52 68 -142 70 -186 2 -39 2 -39 6 -6 6 44 -33 153
-70 194 l-29 32 23 -34z"/>
<path d="M1976 1041 c-13 -14 -14 -21 -5 -27 7 -4 10 -3 6 3 -10 16 18 34 39
27 16 -5 16 -4 4 5 -20 15 -24 14 -44 -8z"/>
<path d="M574 1029 c-3 -6 0 -18 9 -26 10 -10 17 -12 22 -4 4 7 1 10 -7 9 -7
-2 -12 5 -12 15 2 20 -2 22 -12 6z"/>
<path d="M1700 1026 c0 -2 8 -10 18 -17 15 -13 16 -12 3 4 -13 16 -21 21 -21
13z"/>
<path d="M623 1013 c4 -3 1 -13 -6 -22 -11 -14 -10 -14 5 -2 16 12 16 31 1 31
-4 0 -3 -3 0 -7z"/>
<path d="M1277 985 c-15 -14 -27 -29 -27 -32 0 -4 14 6 30 22 28 26 34 35 27
35 -1 0 -15 -11 -30 -25z"/>
<path d="M1489 981 c12 -16 25 -39 30 -52 6 -14 10 -17 10 -9 1 15 -45 90 -55
90 -3 0 4 -13 15 -29z"/>
<path d="M1690 1006 c0 -2 8 -10 18 -17 15 -13 16 -12 3 4 -13 16 -21 21 -21
13z"/>
<path d="M420 984 c0 -8 5 -12 10 -9 6 4 8 11 5 16 -9 14 -15 11 -15 -7z"/>
<path d="M2350 990 c8 -5 20 -10 25 -10 6 0 3 5 -5 10 -8 5 -19 10 -25 10 -5
0 -3 -5 5 -10z"/>
<path d="M1983 975 c-3 -9 -3 -18 -1 -21 3 -3 8 4 11 16 6 23 -1 27 -10 5z"/>
<path d="M1849 941 c27 -24 37 -26 47 -9 4 7 3 8 -5 4 -6 -4 -24 0 -39 9 l-27
16 24 -20z"/>
<path d="M1750 920 c0 -36 38 -80 70 -80 17 0 19 3 10 19 -5 11 -13 21 -17 23
-5 1 -20 18 -35 36 l-28 34 0 -32z"/>
<path d="M2483 925 c17 -15 23 -25 14 -25 -12 0 -13 -6 -2 -37 7 -21 15 -51
19 -66 6 -26 5 -27 -16 -17 -22 11 -22 10 -4 -4 28 -22 49 -21 38 2 -6 9 -13
36 -16 58 -7 39 -6 42 19 47 20 3 36 -3 61 -25 19 -17 34 -25 34 -20 0 18 -68
64 -81 56 -8 -4 -9 -3 -5 4 4 7 -9 19 -33 32 -53 27 -62 25 -28 -5z"/>
<path d="M240 932 c0 -5 7 -15 15 -22 8 -7 15 -9 15 -6 0 4 -7 14 -15 22 -8 9
-15 11 -15 6z"/>
<path d="M344 886 c9 -14 13 -33 10 -43 -5 -16 -4 -16 5 -2 11 17 -6 69 -23
69 -4 0 -1 -11 8 -24z"/>
<path d="M6740 894 c0 -17 5 -20 25 -16 14 2 22 8 19 13 -3 5 -10 6 -16 3 -6
-4 -14 0 -19 7 -7 11 -9 9 -9 -7z"/>
<path d="M1534 873 c1 -30 16 -37 16 -7 0 8 5 14 11 14 6 0 9 -12 7 -27 -2
-17 -8 -27 -17 -25 -9 2 -11 -3 -6 -15 4 -10 9 -31 12 -48 8 -48 31 -57 74
-28 26 17 36 30 32 40 -5 14 -8 13 -14 -4 -8 -22 -39 -39 -39 -22 0 6 -9 8
-20 4 -17 -6 -19 -2 -17 27 2 19 8 32 15 31 21 -5 49 32 41 53 -6 17 -7 16
-10 -6 -2 -14 -12 -26 -23 -28 -16 -3 -18 1 -14 28 4 29 3 31 -18 27 -13 -2
-25 1 -27 7 -2 6 -4 -3 -3 -21z"/>
<path d="M6700 875 c-11 -13 -10 -14 4 -9 9 3 16 10 16 15 0 13 -6 11 -20 -6z"/>
<path d="M2050 860 c0 -13 49 -44 57 -36 3 3 1 6 -5 6 -7 0 -21 9 -32 20 -11
11 -20 16 -20 10z"/>
<path d="M6667 834 c-3 -20 -1 -22 14 -14 27 15 31 27 10 33 -14 3 -20 -2 -24
-19z"/>
<path d="M1438 834 c-34 -18 -36 -24 -5 -17 21 4 21 3 -3 -10 -14 -9 -28 -13
-32 -11 -5 3 -8 0 -8 -5 0 -6 5 -11 10 -11 18 0 60 32 54 41 -5 8 17 14 39 10
4 0 7 4 7 9 0 14 -31 12 -62 -6z"/>
<path d="M6640 835 c-7 -9 -8 -15 -2 -15 5 0 12 7 16 15 3 8 4 15 2 15 -2 0
-9 -7 -16 -15z"/>
<path d="M1480 797 c-23 -35 -33 -54 -17 -34 29 35 27 15 -3 -29 -38 -54 -32
-69 10 -29 l29 28 -11 -31 c-7 -18 -18 -32 -25 -32 -6 0 -15 -9 -18 -20 -5
-16 -10 -18 -26 -10 -13 7 -19 7 -19 0 0 -9 12 -12 37 -9 4 0 10 -8 14 -18 6
-13 8 -8 9 17 1 25 3 30 9 17 5 -15 9 -12 19 17 8 20 17 36 22 36 9 0 -31
-103 -43 -108 -4 -2 -5 -8 -2 -12 3 -5 -9 -5 -27 0 -17 6 -35 15 -38 21 -8 11
-23 -14 -24 -40 -1 -8 -9 -15 -18 -17 -9 -1 -27 -10 -40 -19 l-23 -17 25 8
c14 4 61 7 104 6 51 -1 84 2 94 10 11 9 14 9 9 1 -5 -7 -1 -12 10 -11 36 1
139 -14 165 -24 15 -6 30 -19 33 -29 8 -24 17 -24 32 0 8 12 34 24 70 32 63
13 110 33 55 22 -19 -3 -43 -1 -56 7 -16 8 -39 10 -67 5 -165 -27 -212 -14
-211 61 0 21 5 52 11 67 14 36 14 37 -4 37 -20 0 -48 46 -42 69 3 11 -2 26
-12 35 -15 14 -18 13 -31 -7z"/>
<path d="M2730 810 c8 -5 20 -10 25 -10 6 0 3 5 -5 10 -8 5 -19 10 -25 10 -5
0 -3 -5 5 -10z"/>
<path d="M768 803 c7 -3 16 -2 19 1 4 3 -2 6 -13 5 -11 0 -14 -3 -6 -6z"/>
<path d="M6575 799 c-4 -6 -5 -12 -2 -15 2 -3 7 2 10 11 7 17 1 20 -8 4z"/>
<path d="M1880 776 c0 -20 19 -31 32 -18 7 7 3 14 -11 21 -17 10 -21 9 -21 -3z"/>
<path d="M1400 761 c0 -17 12 -41 20 -41 14 0 7 39 -7 44 -7 3 -13 1 -13 -3z"/>
<path d="M2020 760 c-20 -12 32 -42 84 -47 42 -5 116 11 116 25 0 4 -31 8 -68
9 -37 1 -79 6 -93 11 -14 6 -32 7 -39 2z"/>
<path d="M2350 766 c0 -4 7 -14 15 -22 8 -9 15 -11 15 -5 0 6 19 12 43 12 l42
2 -40 6 c-22 3 -42 2 -43 -2 -2 -4 -10 -3 -18 4 -8 6 -14 8 -14 5z"/>
<path d="M2476 757 c3 -10 9 -15 12 -12 3 3 0 11 -7 18 -10 9 -11 8 -5 -6z"/>
<path d="M2674 730 c0 -15 7 -20 25 -20 13 0 22 1 20 3 -2 1 -13 10 -24 19
-20 16 -21 16 -21 -2z"/>
<path d="M2340 725 c0 -8 9 -15 20 -15 11 0 20 -7 20 -15 0 -16 15 -21 24 -7
2 4 -11 17 -30 30 -27 18 -34 19 -34 7z"/>
<path d="M6939 703 c-13 -16 -12 -17 4 -4 16 13 21 21 13 21 -2 0 -10 -8 -17
-17z"/>
<path d="M2433 676 c1 -6 -4 -10 -10 -8 -7 1 -13 -2 -13 -6 0 -18 12 -20 38
-6 15 8 52 14 82 15 69 1 55 6 -32 12 -47 3 -67 1 -65 -7z"/>
<path d="M6832 619 c-45 -39 -91 -87 -101 -107 -20 -39 -53 -143 -48 -149 2
-1 37 -6 78 -9 90 -8 99 -1 127 103 l20 72 -56 12 c-31 7 -61 15 -65 19 -5 4
13 23 40 43 43 32 103 88 92 86 -2 0 -41 -32 -87 -70z m-22 -90 c0 -4 11 -6
25 -3 17 3 27 -1 32 -12 5 -13 7 -13 14 -2 5 8 9 9 9 2 0 -18 -27 -37 -35 -24
-3 6 -11 8 -16 4 -5 -3 -6 -10 -3 -16 4 -7 2 -8 -5 -4 -6 4 -9 11 -6 16 3 4
-3 14 -12 21 -14 12 -15 11 -9 -11 6 -19 5 -21 -3 -10 -10 14 -15 7 -12 -13 1
-5 -3 -6 -9 -2 -6 3 -8 10 -5 15 3 4 -2 13 -10 20 -11 9 -12 16 -5 25 11 13
50 9 50 -6z m27 -161 c-3 -7 -5 -2 -5 12 0 14 2 19 5 13 2 -7 2 -19 0 -25z"/>
<path d="M6765 531 c-2 -5 1 -14 9 -20 10 -9 15 -8 19 3 6 15 -19 31 -28 17z"/>
<path d="M6827 507 c3 -4 8 -6 11 -3 3 3 11 1 19 -6 11 -8 12 -7 7 5 -3 9 -14
15 -24 14 -10 -1 -16 -5 -13 -10z"/>
<path d="M6525 610 c3 -5 8 -10 11 -10 2 0 4 5 4 10 0 6 -5 10 -11 10 -5 0 -7
-4 -4 -10z"/>
<path d="M2033 603 c9 -2 23 -2 30 0 6 3 -1 5 -18 5 -16 0 -22 -2 -12 -5z"/>
<path d="M2421 601 c-23 -15 3 -20 29 -5 22 12 23 13 5 13 -11 1 -26 -3 -34
-8z"/>
<path d="M1988 593 c7 -3 16 -2 19 1 4 3 -2 6 -13 5 -11 0 -14 -3 -6 -6z"/>
<path d="M2773 584 c-7 -20 -3 -23 34 -26 18 -1 30 -5 27 -9 -2 -4 0 -11 6
-14 6 -4 22 -24 35 -45 26 -41 80 -85 89 -72 3 5 -6 30 -19 58 -27 57 -31 55
-10 -6 13 -38 13 -41 0 -30 -8 7 -15 20 -15 29 0 14 -2 14 -10 1 -7 -11 -15
-2 -35 42 -28 61 -38 72 -73 81 -15 3 -25 0 -29 -9z"/>
<path d="M467 573 c6 -16 25 -13 31 5 2 6 -6 10 -16 9 -12 -1 -18 -6 -15 -14z"/>
<path d="M2240 584 c0 -6 7 -17 15 -24 8 -7 15 -22 15 -34 0 -11 4 -27 8 -33
5 -7 8 4 7 27 0 24 -5 40 -12 40 -7 0 -17 8 -22 18 -6 9 -11 12 -11 6z"/>
<path d="M2343 570 c-18 -11 -33 -22 -33 -25 0 -8 58 23 65 35 9 14 5 13 -32
-10z"/>
<path d="M2338 505 c-34 -42 -64 -80 -66 -85 -5 -15 41 -22 68 -10 25 10 25
10 -3 6 -20 -2 -25 0 -18 7 6 6 11 18 11 26 0 11 -4 10 -15 -5 -9 -11 -14 -14
-15 -6 0 7 19 34 43 60 51 57 71 82 64 82 -3 0 -34 -34 -69 -75z"/>
<path d="M2564 549 c-28 -18 -23 -28 5 -10 9 6 22 6 32 0 24 -12 32 4 10 18
-14 9 -24 7 -47 -8z"/>
<path d="M4506 501 l7 -71 -109 -1 c-118 -1 -173 -10 -141 -24 10 -4 42 -8 71
-9 30 0 52 -4 50 -7 -2 -3 55 -12 127 -19 124 -13 130 -13 145 6 15 18 15 18
9 -3 -6 -21 -4 -22 72 -23 77 0 95 -2 183 -14 45 -6 45 -6 15 8 -16 8 -76 52
-132 99 -106 88 -148 108 -258 123 l-45 7 6 -72z m294 -66 c11 -13 8 -14 -21
-9 -54 9 -57 11 -52 38 l5 26 28 -20 c15 -10 33 -26 40 -35z"/>
<path d="M2699 535 c-20 -13 -39 -31 -42 -40 -4 -8 14 1 38 22 40 33 51 44 43
42 -2 0 -19 -11 -39 -24z"/>
<path d="M1020 520 c-9 -6 -10 -10 -3 -10 6 0 15 5 18 10 8 12 4 12 -15 0z"/>
<path d="M2450 479 c-22 -18 -22 -19 -3 -10 12 6 25 16 28 21 9 15 3 12 -25
-11z"/>
<path d="M955 480 c-3 -5 -1 -10 4 -10 6 0 11 5 11 10 0 6 -2 10 -4 10 -3 0
-8 -4 -11 -10z"/>
<path d="M2264 459 c-3 -6 -20 -17 -38 -25 -17 -7 -25 -13 -18 -14 17 0 72 32
72 42 0 11 -8 10 -16 -3z"/>
<path d="M1845 453 c6 -6 78 -18 160 -27 174 -19 175 -19 155 -6 -8 5 -37 10
-65 10 -27 1 -72 5 -100 10 -93 18 -161 23 -150 13z"/>
<path d="M2396 445 c-11 -8 -15 -15 -9 -15 6 0 16 7 23 15 16 19 11 19 -14 0z"/>
<path d="M2615 429 c-4 -6 -5 -12 -2 -15 2 -3 7 2 10 11 7 17 1 20 -8 4z"/>
<path d="M1590 421 c0 -10 26 -9 36 2 4 4 -2 7 -14 7 -12 0 -22 -4 -22 -9z"/>
<path d="M5292 400 c0 -14 2 -19 5 -12 2 6 2 18 0 25 -3 6 -5 1 -5 -13z"/>
<path d="M5198 343 c7 -3 16 -2 19 1 4 3 -2 6 -13 5 -11 0 -14 -3 -6 -6z"/>
<path d="M2514 328 c-3 -5 -1 -15 5 -21 8 -8 11 -6 11 7 0 9 4 15 9 11 5 -3
12 -2 15 3 2 4 -4 8 -14 9 -11 1 -22 -3 -26 -9z"/>
<path d="M5148 333 c7 -3 16 -2 19 1 4 3 -2 6 -13 5 -11 0 -14 -3 -6 -6z"/>
<path d="M4998 323 c12 -2 30 -2 40 0 9 3 -1 5 -23 4 -22 0 -30 -2 -17 -4z"/>
</g>
</svg>
